<svg width="72" height="72" viewBox="0 0 72 72" fill="none" xmlns="http://www.w3.org/2000/svg">
<g clip-path="url(#clip0_258_50367)">
<path d="M36 72C55.8823 72 72 55.8823 72 36C72 16.1178 55.8823 0 36 0C16.1178 0 0 16.1178 0 36C0 55.8823 16.1178 72 36 72Z" fill="#E44A00"/>
<path fill-rule="evenodd" clip-rule="evenodd" d="M28.8987 37.7684H22.8689C22.6358 37.7684 22.4122 37.6754 22.2473 37.5099C22.0824 37.3444 21.9898 37.1199 21.9898 36.8858C21.9898 36.6517 22.0824 36.4273 22.2473 36.2618C22.4122 36.0962 22.6358 36.0033 22.8689 36.0033H28.8987C29.1318 36.0033 29.3554 36.0962 29.5203 36.2618C29.6852 36.4273 29.7778 36.6517 29.7778 36.8858C29.7778 37.1199 29.6852 37.3444 29.5203 37.5099C29.3554 37.6754 29.1318 37.7684 28.8987 37.7684ZM56.1174 25.4062H52.282C52.0368 25.4062 51.8016 25.504 51.6282 25.6781C51.4548 25.8522 51.3574 26.0883 51.3574 26.3345C51.3574 26.5807 51.4548 26.8168 51.6282 26.9909C51.8016 27.165 52.0368 27.2628 52.282 27.2628L56.1435 27.3609L56.1044 29.5117C56.025 29.5152 55.9462 29.5283 55.87 29.5509L52.0216 30.5772C51.8829 30.616 51.755 30.6863 51.6477 30.7826C51.5404 30.879 51.4567 30.9988 51.403 31.1329C51.3525 31.2693 51.3333 31.4154 51.3468 31.5603C51.3603 31.7052 51.4062 31.8451 51.4811 31.9697L52.4318 33.4995C52.977 34.3758 53.2658 35.3884 53.2653 36.4217V41.73C53.2901 42.2752 53.0982 42.808 52.7319 43.2113C52.3656 43.6146 51.8549 43.8554 51.3118 43.8808H20.6615C20.1184 43.8554 19.6076 43.6146 19.2413 43.2113C18.8751 42.808 18.6832 42.2752 18.708 41.73V36.4217C18.7074 35.3884 18.9962 34.3758 19.5414 33.4995L20.4922 32.0089C20.5696 31.886 20.6172 31.7466 20.6311 31.6019C20.645 31.4571 20.6248 31.3111 20.5723 31.1756C20.5197 31.0402 20.4361 30.919 20.3283 30.8218C20.2205 30.7247 20.0915 30.6544 19.9517 30.6165L16.1098 29.5901C16.0317 29.5901 15.9145 29.4528 15.8363 29.4528L15.8754 27.302H19.7238C19.969 27.302 20.2042 27.2042 20.3776 27.0301C20.551 26.856 20.6484 26.6199 20.6484 26.3737C20.6484 26.1275 20.551 25.8914 20.3776 25.7173C20.2042 25.5432 19.969 25.4454 19.7238 25.4454H15.8819C15.3763 25.464 14.8976 25.6789 14.5466 26.0447C14.1956 26.4105 13.9997 26.8987 14 27.4066V29.4659C13.9973 29.9517 14.1742 30.4213 14.4967 30.7837C14.8191 31.146 15.264 31.3753 15.7452 31.4271L18.2652 32.0808L17.9787 32.545C17.2498 33.7221 16.8662 35.0815 16.8717 36.4674V41.7758C16.883 42.6879 17.1995 43.5698 17.7703 44.2796C17.6179 44.4475 17.5341 44.6669 17.5359 44.8941V49.0388C17.5356 49.5478 17.7324 50.037 18.0848 50.403C18.4372 50.7689 18.9175 50.983 19.4242 51H26.1703C26.6816 50.9897 27.1685 50.7786 27.5265 50.4119C27.8844 50.0452 28.0848 49.5522 28.0847 49.0388C28.0797 48.9177 28.051 48.7988 28.0001 48.6889C27.9493 48.579 27.8773 48.4802 27.7884 48.3982C27.6995 48.3163 27.5954 48.2527 27.482 48.2112C27.3686 48.1696 27.2481 48.151 27.1275 48.1562C26.8729 48.1646 26.6314 48.2712 26.4531 48.4539C26.2748 48.6365 26.1735 48.8811 26.1703 49.1368L19.3982 49.0388V45.4825C19.8145 45.6394 20.2558 45.7192 20.7005 45.7178H51.3248C51.7697 45.7206 52.2112 45.6409 52.6272 45.4825V49.1368L45.7704 49.0388C45.7704 48.7891 45.6716 48.5497 45.4958 48.3731C45.3199 48.1966 45.0814 48.0974 44.8327 48.0974C44.584 48.0974 44.3455 48.1966 44.1697 48.3731C43.9938 48.5497 43.895 48.7891 43.895 49.0388C43.8948 49.5489 44.0926 50.039 44.4463 50.4052C44.8001 50.7713 45.2821 50.9847 45.7899 51H52.5686C53.0787 50.988 53.564 50.7762 53.9205 50.4096C54.2771 50.0431 54.4766 49.5511 54.4765 49.0388V44.8941C54.4795 44.6667 54.3956 44.4468 54.2421 44.2796C54.8273 43.5357 55.14 42.6125 55.1276 41.6646V36.3824C55.127 35.0076 54.7436 33.6603 54.0207 32.4927L53.7341 32.0285L56.2542 31.3748C56.7394 31.3333 57.1905 31.107 57.5149 30.7424C57.8394 30.3777 58.0127 29.9024 57.9993 29.4136V27.3609C58.0045 27.1082 57.9598 26.8571 57.8679 26.6218C57.7759 26.3866 57.6385 26.172 57.4636 25.9903C57.2887 25.8086 57.0797 25.6634 56.8486 25.5632C56.6176 25.4629 56.3691 25.4096 56.1174 25.4062ZM21.1108 28.8448C22.0224 26.6418 23.6177 22.8566 24.054 22.3075C24.3728 21.9186 24.7693 21.6012 25.218 21.376C25.6667 21.1507 26.1575 21.0226 26.6587 21H45.3732C45.8743 21.0226 46.3652 21.1507 46.8139 21.376C47.2626 21.6012 47.6591 21.9186 47.9778 22.3075C48.4141 22.8632 50.0095 26.6483 50.9211 28.8448C50.9644 28.953 50.9859 29.0686 50.9844 29.1851C50.9829 29.3016 50.9584 29.4167 50.9124 29.5236C50.8664 29.6306 50.7998 29.7274 50.7163 29.8083C50.6329 29.8893 50.5343 29.9529 50.4262 29.9954L46.669 31.5121C46.5647 31.5663 46.4477 31.5911 46.3304 31.584H25.7015C25.5842 31.5911 25.4672 31.5663 25.3629 31.5121L21.6056 29.9954C21.4976 29.9529 21.399 29.8893 21.3156 29.8083C21.2321 29.7274 21.1655 29.6306 21.1195 29.5236C21.0734 29.4167 21.049 29.3016 21.0475 29.1851C21.046 29.0686 21.0675 28.953 21.1108 28.8448ZM23.1229 28.7141L25.8708 29.8255H46.135L48.883 28.7141C47.8606 26.2495 46.7797 23.7653 46.5323 23.4123C46.2412 23.0562 45.8275 22.8229 45.3732 22.7586H26.6326C26.1764 22.8171 25.7607 23.0515 25.4736 23.4123C25.2457 23.7653 24.1452 26.2691 23.1229 28.7141ZM50.0811 36.8858C50.0709 36.6436 49.9661 36.4152 49.7894 36.25C49.6127 36.0848 49.3783 35.9962 49.1369 36.0033H43.1071C42.874 36.0033 42.6504 36.0962 42.4855 36.2618C42.3207 36.4273 42.2281 36.6517 42.2281 36.8858C42.2281 37.1199 42.3207 37.3444 42.4855 37.5099C42.6504 37.6754 42.874 37.7684 43.1071 37.7684H49.1565C49.275 37.7718 49.3931 37.7517 49.5038 37.7092C49.6146 37.6666 49.7159 37.6025 49.8019 37.5204C49.8878 37.4384 49.9567 37.3401 50.0047 37.2311C50.0526 37.1222 50.0786 37.0049 50.0811 36.8858ZM27.2903 42.1876H44.735C44.9682 42.1876 45.1918 42.0946 45.3566 41.9291C45.5215 41.7636 45.6141 41.5391 45.6141 41.3051C45.6141 41.071 45.5215 40.8465 45.3566 40.681C45.1918 40.5155 44.9682 40.4225 44.735 40.4225H27.2708C27.1506 40.4164 27.0305 40.4345 26.9174 40.4759C26.8044 40.5172 26.7007 40.5809 26.6127 40.6632C26.5246 40.7455 26.4539 40.8448 26.4048 40.955C26.3556 41.0653 26.3291 41.1843 26.3266 41.3051C26.3308 41.4253 26.3586 41.5435 26.4083 41.6529C26.458 41.7624 26.5288 41.8609 26.6165 41.9428C26.7042 42.0248 26.8071 42.0886 26.9194 42.1306C27.0316 42.1726 27.151 42.192 27.2708 42.1876H27.2903Z" fill="white"/>
</g>
<defs>
<clipPath id="clip0_258_50367">
<rect width="72" height="72" fill="white"/>
</clipPath>
</defs>
</svg>
