<svg width="72" height="72" viewBox="0 0 72 72" fill="none" xmlns="http://www.w3.org/2000/svg">
<g clip-path="url(#clip0_258_50363)">
<path d="M36 72C55.8823 72 72 55.8823 72 36C72 16.1177 55.8823 0 36 0C16.1177 0 0 16.1177 0 36C0 55.8823 16.1177 72 36 72Z" fill="#E44A00"/>
<path fill-rule="evenodd" clip-rule="evenodd" d="M57.9943 39.5467C58.2045 39.7189 58.3626 39.9476 58.4506 40.2065C58.5387 40.4655 58.553 40.7444 58.4921 41.0112C58.4312 41.2781 58.2974 41.5222 58.1061 41.7157C57.9147 41.9091 57.6735 42.0442 57.41 42.1054C57.1537 42.1959 56.8827 42.2361 56.6115 42.2238C55.5818 42.2269 54.5623 42.0166 53.6156 41.606C52.6689 41.1954 51.8151 40.5931 51.1065 39.8361C50.2021 40.0188 49.287 40.1419 48.3669 40.2044C48.1255 40.2175 47.8884 40.136 47.7047 39.9769C47.521 39.8177 47.4048 39.593 47.3802 39.3493C47.3658 39.1047 47.447 38.8642 47.6061 38.6796C47.7651 38.495 47.9894 38.3812 48.2306 38.3627C49.2311 38.2868 50.2248 38.1373 51.2038 37.9154C51.3717 37.8751 51.5472 37.8827 51.711 37.9373C51.8749 37.9918 52.0206 38.0912 52.1322 38.2245C53.1323 39.4332 54.5619 40.1941 56.1117 40.3426C55.346 39.4989 54.8111 38.4672 54.5601 37.3497C54.5151 37.1583 54.5318 36.9573 54.6077 36.7762C54.6837 36.5951 54.8149 36.4433 54.9821 36.3433C57.6243 34.7712 59.1369 32.5216 59.1369 30.1734C59.1369 25.5689 53.6253 21.8854 46.8024 21.8854C43.6328 21.812 40.518 22.7307 37.8826 24.5165C37.7838 24.5893 37.6718 24.6415 37.553 24.6703C37.4342 24.6991 37.3109 24.7039 37.1903 24.6843C37.0697 24.6648 36.9541 24.6213 36.8501 24.5564C36.7461 24.4914 36.6558 24.4064 36.5843 24.306C36.5111 24.2061 36.4585 24.0923 36.4296 23.9714C36.4007 23.8505 36.3961 23.725 36.4161 23.6022C36.4361 23.4795 36.4803 23.3621 36.5459 23.257C36.6116 23.1519 36.6975 23.0612 36.7985 22.9905C39.7592 20.9684 43.2653 19.9252 46.8349 20.0042C54.625 20.0042 61 24.5626 61 30.1536C61 32.9689 59.39 35.6263 56.5531 37.5273C56.8412 38.3218 57.3398 39.0206 57.9943 39.5467ZM45.2119 37.0274C45.2119 43.934 37.5386 49.5646 28.1319 49.5646C26.3536 49.5656 24.5801 49.376 22.8411 48.9989C21.9985 49.9416 20.9707 50.6955 19.8237 51.212C18.6767 51.7285 17.4357 51.9964 16.1805 51.9983C15.853 52.0081 15.5257 51.975 15.2067 51.8997C14.9216 51.824 14.6626 51.6705 14.4577 51.4559C14.2528 51.2414 14.1099 50.9739 14.0447 50.6828C13.9792 50.3897 13.9961 50.0839 14.0937 49.8002C14.1912 49.5165 14.3654 49.2662 14.5965 49.0778C15.4742 48.332 16.1286 47.3523 16.4856 46.2494C13.0125 43.8945 11 40.5399 11 37.0274C11 30.0813 18.6928 24.4442 28.1319 24.4442C37.571 24.4442 45.2119 30.0813 45.2119 37.0274ZM43.4007 37.0274C43.4007 31.1074 36.5518 26.2925 28.1319 26.2925C19.712 26.2925 12.8112 31.1008 12.8112 37.0076C12.8112 40.0466 14.6938 42.9737 18.0047 45.0128C18.1722 45.1158 18.3033 45.2699 18.3791 45.4531C18.4549 45.6362 18.4715 45.839 18.4266 46.0323C18.0877 47.5927 17.3072 49.0191 16.1805 50.1368C17.2655 50.127 18.3347 49.8715 19.3096 49.3889C20.2846 48.9063 21.1407 48.209 21.8154 47.3479C21.922 47.2063 22.0681 47.1006 22.2348 47.0443C22.4015 46.988 22.5811 46.9837 22.7502 47.0321C24.5174 47.4739 26.3312 47.6948 28.1514 47.6899C36.5518 47.6833 43.4007 42.8947 43.4007 37.0274ZM24.1589 37.3168C24.1589 37.577 24.0828 37.8313 23.9401 38.0477C23.7974 38.264 23.5947 38.4326 23.3574 38.5322C23.1202 38.6318 22.8591 38.6578 22.6073 38.6071C22.3554 38.5563 22.1241 38.431 21.9425 38.247C21.7609 38.063 21.6372 37.8286 21.5871 37.5735C21.537 37.3183 21.5628 37.0537 21.661 36.8134C21.7593 36.573 21.9257 36.3675 22.1392 36.223C22.3527 36.0784 22.6038 36.0012 22.8606 36.0012C23.2049 36.0012 23.5351 36.1399 23.7786 36.3866C24.0221 36.6333 24.1589 36.9679 24.1589 37.3168ZM23.2111 37.3168C23.2129 37.2671 23.2046 37.2175 23.1867 37.1712C23.1687 37.1248 23.1415 37.0828 23.1068 37.0476C23.0721 37.0124 23.0305 36.9848 22.9848 36.9666C22.9391 36.9485 22.8902 36.94 22.8411 36.9419C22.7888 36.9348 22.7357 36.9391 22.6852 36.9546C22.6347 36.97 22.5881 36.9962 22.5484 37.0314C22.5088 37.0666 22.477 37.11 22.4552 37.1586C22.4334 37.2073 22.4221 37.2601 22.4221 37.3135C22.4221 37.3669 22.4334 37.4197 22.4552 37.4684C22.477 37.517 22.5088 37.5604 22.5484 37.5956C22.5881 37.6308 22.6347 37.657 22.6852 37.6724C22.7357 37.6879 22.7888 37.6922 22.8411 37.6852C22.9381 37.6852 23.0313 37.6466 23.1005 37.5777C23.1697 37.5088 23.2094 37.4151 23.2111 37.3168ZM29.4238 37.3168C29.4238 37.577 29.3476 37.8313 29.205 38.0477C29.0623 38.264 28.8595 38.4326 28.6223 38.5322C28.385 38.6318 28.124 38.6578 27.8721 38.6071C27.6203 38.5563 27.3889 38.431 27.2073 38.247C27.0258 38.063 26.9021 37.8286 26.852 37.5735C26.8019 37.3183 26.8276 37.0537 26.9259 36.8134C27.0242 36.573 27.1906 36.3675 27.4041 36.223C27.6176 36.0784 27.8686 36.0012 28.1254 36.0012C28.4698 36.0012 28.8 36.1399 29.0435 36.3866C29.287 36.6333 29.4238 36.9679 29.4238 37.3168ZM28.476 37.3168C28.4727 37.2184 28.4327 37.1249 28.364 37.0553C28.2953 36.9857 28.2031 36.9452 28.1059 36.9419C28.0328 36.9419 27.9612 36.9639 27.9004 37.0051C27.8395 37.0463 27.7921 37.1048 27.7641 37.1733C27.7361 37.2418 27.7287 37.3172 27.743 37.3899C27.7573 37.4627 27.7925 37.5295 27.8443 37.5819C27.896 37.6343 27.962 37.6701 28.0338 37.6845C28.1055 37.699 28.1799 37.6916 28.2476 37.6632C28.3152 37.6348 28.373 37.5868 28.4136 37.5251C28.4543 37.4634 28.476 37.391 28.476 37.3168ZM35.5586 37.3168C35.5586 38.0403 34.7666 38.6323 33.8058 38.6323C32.845 38.6323 32.053 38.0272 32.053 37.3168C32.053 36.6064 32.845 36.0012 33.8058 36.0012C34.7666 36.0012 35.5586 36.6064 35.5586 37.3168ZM34.2991 37.3168C34.2991 37.0997 34.0849 36.9419 33.8058 36.9419C33.5266 36.9419 33.3189 37.0997 33.3189 37.3168C33.338 37.4297 33.3992 37.5308 33.4898 37.5994C33.5804 37.6679 33.6935 37.6986 33.8058 37.6852C34.0654 37.7049 34.2991 37.547 34.2991 37.3168Z" fill="white"/>
</g>
<defs>
<clipPath id="clip0_258_50363">
<rect width="72" height="72" fill="white"/>
</clipPath>
</defs>
</svg>
