<svg width="24" height="24" viewBox="0 0 24 24" fill="none" xmlns="http://www.w3.org/2000/svg">
<path fill-rule="evenodd" clip-rule="evenodd" d="M20.7977 13.33C20.8818 13.3946 20.945 13.4803 20.9803 13.5775C21.0155 13.6746 21.0212 13.7791 20.9968 13.8792C20.9725 13.9793 20.919 14.0708 20.8424 14.1434C20.7659 14.2159 20.6694 14.2666 20.564 14.2895C20.4615 14.3235 20.3531 14.3385 20.2446 14.3339C19.8327 14.3351 19.4249 14.2562 19.0462 14.1023C18.6676 13.9483 18.326 13.7224 18.0426 13.4385C17.6808 13.5071 17.3148 13.5532 16.9468 13.5767C16.8502 13.5816 16.7554 13.551 16.6819 13.4913C16.6084 13.4316 16.5619 13.3474 16.5521 13.256C16.5463 13.1643 16.5788 13.0741 16.6424 13.0049C16.7061 12.9356 16.7958 12.893 16.8922 12.886C17.2924 12.8575 17.6899 12.8015 18.0815 12.7183C18.1487 12.7032 18.2189 12.706 18.2844 12.7265C18.35 12.7469 18.4083 12.7842 18.4529 12.8342C18.8529 13.2874 19.4248 13.5728 20.0447 13.6285C19.7384 13.3121 19.5245 12.9252 19.424 12.5061C19.406 12.4344 19.4127 12.359 19.4431 12.2911C19.4735 12.2231 19.5259 12.1663 19.5928 12.1287C20.6497 11.5392 21.2547 10.6956 21.2547 9.81501C21.2547 8.08836 19.0501 6.70703 16.321 6.70703C15.0531 6.67948 13.8072 7.02403 12.7531 7.69369C12.7135 7.72097 12.6687 7.74057 12.6212 7.75137C12.5737 7.76217 12.5244 7.76395 12.4761 7.75662C12.4279 7.74929 12.3816 7.73298 12.34 7.70864C12.2984 7.68429 12.2623 7.65239 12.2337 7.61476C12.2044 7.5773 12.1834 7.53463 12.1718 7.48929C12.1603 7.44395 12.1585 7.39686 12.1664 7.35083C12.1744 7.30481 12.1921 7.26078 12.2184 7.22136C12.2447 7.18195 12.279 7.14797 12.3194 7.12143C13.5037 6.36316 14.9061 5.97195 16.3339 6.00157C19.45 6.00157 22 7.71096 22 9.80761C22 10.8633 21.356 11.8599 20.2212 12.5727C20.3365 12.8707 20.5359 13.1327 20.7977 13.33ZM15.6848 12.3853C15.6848 14.9753 12.6154 17.0867 8.85277 17.0867C8.14142 17.0871 7.43203 17.016 6.73643 16.8746C6.39941 17.2281 5.9883 17.5108 5.52948 17.7045C5.07066 17.8982 4.57428 17.9986 4.07219 17.9994C3.94122 18.003 3.81029 17.9906 3.68268 17.9624C3.56866 17.934 3.46502 17.8764 3.38306 17.796C3.3011 17.7155 3.24396 17.6152 3.21787 17.506C3.19166 17.3962 3.19846 17.2815 3.23748 17.1751C3.2765 17.0687 3.34618 16.9748 3.43859 16.9042C3.78968 16.6245 4.05142 16.2571 4.19424 15.8435C2.80499 14.9605 2 13.7025 2 12.3853C2 9.78048 5.07712 7.66656 8.85277 7.66656C12.6284 7.66656 15.6848 9.78048 15.6848 12.3853ZM14.9603 12.3853C14.9603 10.1653 12.2207 8.35969 8.85277 8.35969C5.48481 8.35969 2.72449 10.1628 2.72449 12.3779C2.72449 13.5175 3.47754 14.6151 4.80187 15.3798C4.86889 15.4184 4.92132 15.4762 4.95164 15.5449C4.98196 15.6136 4.98862 15.6896 4.97066 15.7621C4.8351 16.3473 4.52286 16.8821 4.07219 17.3013C4.5062 17.2976 4.93386 17.2018 5.32385 17.0208C5.71384 16.8399 6.0563 16.5784 6.32615 16.2554C6.3688 16.2024 6.42726 16.1627 6.49394 16.1416C6.56062 16.1205 6.63244 16.1189 6.70008 16.137C7.40694 16.3027 8.1325 16.3856 8.86056 16.3837C12.2207 16.3812 14.9603 14.5855 14.9603 12.3853ZM7.26357 12.4938C7.26357 12.5914 7.23311 12.6868 7.17604 12.7679C7.11898 12.849 7.03787 12.9122 6.94297 12.9496C6.84807 12.9869 6.74365 12.9967 6.6429 12.9777C6.54216 12.9586 6.44962 12.9116 6.37699 12.8426C6.30436 12.7736 6.2549 12.6857 6.23486 12.59C6.21482 12.4943 6.2251 12.3952 6.26441 12.305C6.30372 12.2149 6.37028 12.1378 6.45569 12.0836C6.5411 12.0294 6.64151 12.0005 6.74422 12.0005C6.88196 12.0005 7.01406 12.0524 7.11146 12.145C7.20885 12.2375 7.26357 12.363 7.26357 12.4938ZM6.88445 12.4938C6.88517 12.4752 6.88184 12.4566 6.87466 12.4392C6.86748 12.4218 6.85661 12.406 6.84271 12.3928C6.82882 12.3796 6.81221 12.3693 6.79393 12.3625C6.77564 12.3557 6.75607 12.3525 6.73643 12.3532C6.71553 12.3506 6.69427 12.3522 6.67408 12.358C6.65389 12.3638 6.63524 12.3736 6.61937 12.3868C6.6035 12.4 6.59079 12.4162 6.58208 12.4345C6.57336 12.4527 6.56886 12.4725 6.56886 12.4926C6.56886 12.5126 6.57336 12.5324 6.58208 12.5506C6.59079 12.5689 6.6035 12.5852 6.61937 12.5984C6.63524 12.6115 6.65389 12.6214 6.67408 12.6272C6.69427 12.633 6.71553 12.6346 6.73643 12.6319C6.77524 12.6319 6.8125 12.6175 6.84019 12.5916C6.86787 12.5658 6.88376 12.5307 6.88445 12.4938ZM9.36951 12.4938C9.36951 12.5914 9.33906 12.6868 9.28199 12.7679C9.22492 12.849 9.14381 12.9122 9.04891 12.9496C8.95402 12.9869 8.84959 12.9967 8.74885 12.9777C8.64811 12.9586 8.55557 12.9116 8.48294 12.8426C8.4103 12.7736 8.36084 12.6857 8.3408 12.59C8.32076 12.4943 8.33105 12.3952 8.37036 12.305C8.40966 12.2149 8.47623 12.1378 8.56164 12.0836C8.64704 12.0294 8.74745 12.0005 8.85017 12.0005C8.98791 12.0005 9.12001 12.0524 9.2174 12.145C9.3148 12.2375 9.36951 12.363 9.36951 12.4938ZM8.99039 12.4938C8.9891 12.4569 8.97309 12.4219 8.9456 12.3957C8.91812 12.3696 8.88122 12.3544 8.84238 12.3532C8.8131 12.3532 8.78449 12.3614 8.76015 12.3769C8.73581 12.3923 8.71684 12.4143 8.70563 12.44C8.69443 12.4657 8.6915 12.494 8.69721 12.5212C8.70292 12.5485 8.71702 12.5736 8.73772 12.5932C8.75842 12.6129 8.78479 12.6263 8.8135 12.6317C8.84221 12.6371 8.87197 12.6343 8.89902 12.6237C8.92607 12.6131 8.94918 12.595 8.96545 12.5719C8.98171 12.5488 8.99039 12.5216 8.99039 12.4938ZM11.8234 12.4938C11.8234 12.7651 11.5066 12.9871 11.1223 12.9871C10.738 12.9871 10.4212 12.7602 10.4212 12.4938C10.4212 12.2274 10.738 12.0005 11.1223 12.0005C11.5066 12.0005 11.8234 12.2274 11.8234 12.4938ZM11.3197 12.4938C11.3197 12.4124 11.234 12.3532 11.1223 12.3532C11.0106 12.3532 10.9276 12.4124 10.9276 12.4938C10.9352 12.5361 10.9597 12.5741 10.9959 12.5998C11.0322 12.6255 11.0774 12.637 11.1223 12.6319C11.2262 12.6393 11.3197 12.5801 11.3197 12.4938Z" fill="#211F1F"/>
</svg>
