<svg width="72" height="72" viewBox="0 0 72 72" fill="none" xmlns="http://www.w3.org/2000/svg">
<g clip-path="url(#clip0_258_46353)">
<path d="M70.6049 45.2639C75.685 26.3112 64.4391 6.82883 45.4864 1.74874C26.5338 -3.33136 7.05137 7.91459 1.97128 26.8672C-3.10882 45.8199 8.13712 65.3023 27.0898 70.3824C46.0424 75.4625 65.5249 64.2166 70.6049 45.2639Z" fill="#E44A00"/>
<path fill-rule="evenodd" clip-rule="evenodd" d="M54.5696 35.555C54.5697 39.6387 53.2237 43.6087 50.7398 46.8502C48.2559 50.0917 44.7727 52.424 40.8295 53.486C36.8862 54.5481 32.7029 54.2807 28.927 52.7251C25.1511 51.1696 21.9932 48.4128 19.9423 44.8814C17.8914 41.35 17.0618 37.2409 17.5819 33.1904C18.1021 29.1399 19.9429 25.3739 22.8195 22.4752C25.6961 19.5765 29.448 17.707 33.4945 17.1559C37.5409 16.6049 41.6561 17.4031 45.2031 19.427C45.3099 19.4869 45.4038 19.5674 45.4795 19.6637C45.5551 19.76 45.611 19.8704 45.6438 19.9884C45.6767 20.1064 45.6858 20.2297 45.6709 20.3513C45.6559 20.4729 45.617 20.5903 45.5565 20.6968C45.433 20.91 45.231 21.0663 44.9937 21.1324C44.7563 21.1985 44.5026 21.169 44.2867 21.0503C40.8226 19.0545 36.7581 18.3657 32.8298 19.1088C28.9016 19.8518 25.3695 21.9775 22.8737 25.1007C20.3778 28.2238 19.0834 32.1378 19.225 36.1332C19.3665 40.1286 20.9347 43.9411 23.6453 46.8797C26.3559 49.8184 30.0296 51.6888 34.0006 52.152C37.9716 52.6152 41.9771 51.6405 45.2913 49.4045C48.6055 47.1686 51.009 43.8193 52.0663 39.9638C53.1236 36.1082 52.7647 32.0014 51.0547 28.3877C51.0023 28.2764 50.9723 28.1558 50.9664 28.0329C50.9606 27.91 50.979 27.7872 51.0206 27.6714C51.0623 27.5556 51.1263 27.4492 51.2091 27.3581C51.2918 27.2671 51.3917 27.1932 51.5031 27.1408C51.6144 27.0884 51.7349 27.0584 51.8578 27.0525C51.9807 27.0467 52.1036 27.0651 52.2194 27.1067C52.3352 27.1484 52.4416 27.2124 52.5326 27.2952C52.6237 27.378 52.6975 27.4779 52.75 27.5892C53.947 30.0741 54.5689 32.7968 54.5696 35.555ZM28.8001 29.2452C28.6253 29.0794 28.3962 28.9827 28.1554 28.9731C27.9147 28.9635 27.6786 29.0415 27.4911 29.1928C27.3999 29.2684 27.3255 29.3621 27.2726 29.4681C27.2197 29.574 27.1895 29.6899 27.184 29.8082C27.1785 29.9264 27.1977 30.0446 27.2404 30.155C27.2831 30.2655 27.3484 30.3658 27.4321 30.4495L35.4896 38.795C35.5804 38.8893 35.6891 38.9646 35.8094 39.0163C35.9296 39.068 36.059 39.0951 36.19 39.0961C36.3123 39.0952 36.4333 39.0699 36.5457 39.0216C36.6581 38.9732 36.7597 38.9029 36.8445 38.8146L53.4176 21.1419C53.5027 21.0579 53.5687 20.9566 53.6111 20.8448C53.6534 20.7329 53.6712 20.6133 53.6631 20.494C53.655 20.3747 53.6213 20.2586 53.5643 20.1535C53.5072 20.0484 53.4282 19.9569 53.3325 19.8852C53.145 19.7309 52.9064 19.6527 52.6639 19.6661C52.4215 19.6794 52.1929 19.7833 52.0234 19.9572L36.1703 36.8575L28.8001 29.2452Z" fill="white"/>
</g>
<defs>
<clipPath id="clip0_258_46353">
<rect width="72" height="72" fill="white"/>
</clipPath>
</defs>
</svg>
