<svg width="109" height="120" viewBox="0 0 109 120" fill="none" xmlns="http://www.w3.org/2000/svg">
<path fill-rule="evenodd" clip-rule="evenodd" d="M32.6823 100.792V117.333C32.6223 118.045 32.298 118.707 31.7735 119.19C31.249 119.673 30.5625 119.941 29.8501 119.941C29.1377 119.941 28.4513 119.673 27.9267 119.19C27.4022 118.707 27.0779 118.045 27.0179 117.333V103.458H5.63043V117.333C5.57071 118.039 5.24859 118.697 4.72782 119.177C4.20706 119.656 3.52562 119.922 2.8184 119.922C2.11119 119.922 1.42975 119.656 0.908987 119.177C0.388224 118.697 0.0660967 118.039 0.0063794 117.333V100.792C0.0274818 100.076 0.329021 99.3971 0.845801 98.902C1.36258 98.4069 2.05308 98.1354 2.76801 98.1464H29.8602C30.584 98.1245 31.287 98.3905 31.8157 98.8862C32.3445 99.3819 32.656 100.067 32.6823 100.792ZM67.9989 68.1339H40.947C40.5843 68.1259 40.2236 68.1895 39.8855 68.3212C39.5474 68.4529 39.2384 68.65 38.9764 68.9013C38.7143 69.1526 38.5042 69.4532 38.3581 69.7859C38.212 70.1186 38.1328 70.4769 38.1249 70.8403V117.293C38.1511 118.023 38.4606 118.715 38.9876 119.22C39.5146 119.726 40.2176 120.005 40.947 119.999C41.3097 120.007 41.6704 119.944 42.0086 119.812C42.3467 119.68 42.6556 119.483 42.9177 119.232C43.1798 118.981 43.3898 118.68 43.5359 118.347C43.682 118.015 43.7613 117.656 43.7691 117.293V73.5669H65.1365V117.273C65.1443 117.636 65.2236 117.994 65.3697 118.327C65.5157 118.66 65.7258 118.96 65.9879 119.212C66.25 119.463 66.5589 119.66 66.897 119.792C67.2352 119.924 67.5959 119.987 67.9586 119.979C68.695 119.996 69.4082 119.721 69.9439 119.214C70.4796 118.708 70.7947 118.01 70.821 117.273V70.8201C70.7947 70.0915 70.4845 69.4022 69.957 68.9001C69.4294 68.3979 68.7265 68.1229 67.9989 68.1339ZM103.557 38.1215H78.8438C78.497 38.1293 78.1552 38.2056 77.8378 38.3459C77.5204 38.4861 77.2337 38.6877 76.9941 38.939C76.7545 39.1904 76.5666 39.4865 76.4413 39.8106C76.316 40.1347 76.2556 40.4804 76.2636 40.8278V117.273C76.2636 117.958 76.5355 118.616 77.0193 119.101C77.5032 119.586 78.1595 119.858 78.8438 119.858C79.5281 119.858 80.1844 119.586 80.6683 119.101C81.1522 118.616 81.424 117.958 81.424 117.273V43.5342H101.017V117.273C101.017 117.964 101.291 118.626 101.779 119.115C102.267 119.604 102.928 119.878 103.618 119.878C104.308 119.878 104.969 119.604 105.457 119.115C105.944 118.626 106.218 117.964 106.218 117.273V40.8278C106.226 40.4736 106.163 40.1214 106.033 39.792C105.903 39.4626 105.708 39.1628 105.459 38.9104C105.211 38.658 104.915 38.4581 104.588 38.3226C104.262 38.1871 103.911 38.1187 103.557 38.1215ZM106.138 0.0100985H84.5082C84.1298 -0.0225029 83.7487 0.0240353 83.3892 0.14676C83.0297 0.269486 82.6995 0.465718 82.4197 0.72302C82.1399 0.980322 81.9165 1.29308 81.7636 1.64145C81.6108 1.98983 81.5318 2.36622 81.5318 2.74676C81.5318 3.12731 81.6108 3.5037 81.7636 3.85208C81.9165 4.20045 82.1399 4.51321 82.4197 4.77051C82.6995 5.02781 83.0297 5.22405 83.3892 5.34677C83.7487 5.4695 84.1298 5.51603 84.5082 5.48343H99.8282L99.1227 6.02875L1.03443 82.4131C0.755978 82.6302 0.523037 82.9002 0.348967 83.2077C0.174897 83.5152 0.0631243 83.8541 0.0200515 84.205C-0.0230212 84.5559 0.00345662 84.9118 0.0979666 85.2524C0.192477 85.593 0.353158 85.9116 0.570801 86.1899C0.826378 86.5183 1.15367 86.7838 1.52756 86.9659C1.90145 87.1479 2.31199 87.2417 2.72769 87.2401C3.34012 87.2314 3.93361 87.0261 4.42095 86.6544L6.63832 84.9175L103.396 9.5026V21.7217C103.396 22.4662 103.691 23.1803 104.217 23.7068C104.742 24.2332 105.455 24.529 106.198 24.529C106.941 24.529 107.654 24.2332 108.179 23.7068C108.705 23.1803 109 22.4662 109 21.7217V2.65588C108.969 1.92543 108.65 1.23715 108.114 0.741399C107.577 0.245649 106.867 -0.017264 106.138 0.0100985Z" fill="#E2E2E2"/>
</svg>
