<svg width="72" height="72" viewBox="0 0 72 72" fill="none" xmlns="http://www.w3.org/2000/svg">
<g clip-path="url(#clip0_258_50359)">
<path d="M36 72C55.8822 72 72 55.8822 72 36C72 16.1177 55.8822 0 36 0C16.1177 0 0 16.1177 0 36C0 55.8822 16.1177 72 36 72Z" fill="#E44A00"/>
<path fill-rule="evenodd" clip-rule="evenodd" d="M34.2854 32.4602V31.5711C34.2838 31.1651 34.2039 30.7633 34.0503 30.3889C33.8967 30.0144 33.6725 29.6745 33.3904 29.3886C33.1083 29.1026 32.7739 28.8763 32.4063 28.7225C32.0386 28.5687 31.645 28.4905 31.2477 28.4922H30.378C29.5773 28.4939 28.8099 28.8193 28.2431 29.3974C27.6764 29.9755 27.3564 30.7593 27.353 31.5777V32.4667C27.3564 33.2857 27.6762 34.0702 28.2427 34.6493C28.8093 35.2284 29.5767 35.5553 30.378 35.5587H31.2477C31.6463 35.5596 32.0412 35.4801 32.4097 35.3248C32.7782 35.1694 33.1132 34.9413 33.3953 34.6535C33.6775 34.3657 33.9013 34.0238 34.0541 33.6475C34.2068 33.2711 34.2854 32.8676 34.2854 32.4602ZM30.378 33.8656C30.0133 33.8656 29.6636 33.7176 29.4057 33.454C29.1479 33.1904 29.003 32.8329 29.003 32.4602V31.5711C29.003 31.1984 29.1479 30.8409 29.4057 30.5773C29.6636 30.3137 30.0133 30.1657 30.378 30.1657H31.2477C31.6124 30.1657 31.9621 30.3137 32.22 30.5773C32.4778 30.8409 32.6227 31.1984 32.6227 31.5711V32.4602C32.6227 32.8329 32.4778 33.1904 32.22 33.454C31.9621 33.7176 31.6124 33.8656 31.2477 33.8656H30.378ZM41.6335 36.4347H40.7446C39.9445 36.4364 39.1777 36.7621 38.612 37.3403C38.0463 37.9186 37.7277 38.7024 37.726 39.5202V40.4093C37.7235 40.8167 37.7996 41.2207 37.95 41.598C38.1005 41.9754 38.3222 42.3187 38.6026 42.6083C38.883 42.898 39.2165 43.1282 39.584 43.286C39.9516 43.4437 40.346 43.5257 40.7446 43.5274H41.6143C42.4161 43.5257 43.1845 43.1994 43.7514 42.6199C44.3183 42.0404 44.6376 41.2549 44.6393 40.4354V39.5202C44.6342 38.7023 44.3137 37.9195 43.7473 37.3418C43.1809 36.7641 42.4144 36.4381 41.6143 36.4347H41.6335ZM43.0085 40.4289C43.0085 40.8016 42.8636 41.1591 42.6058 41.4227C42.3479 41.6863 41.9982 41.8343 41.6335 41.8343H40.7446C40.3855 41.8258 40.0439 41.674 39.7929 41.4113C39.542 41.1486 39.4015 40.796 39.4016 40.4289V39.5398C39.4016 39.1671 39.5464 38.8096 39.8043 38.546C40.0622 38.2824 40.4119 38.1344 40.7766 38.1344H41.6463C42.011 38.1344 42.3607 38.2824 42.6185 38.546C42.8764 38.8096 43.0213 39.1671 43.0213 39.5398L43.0085 40.4289ZM41.0899 28.9171L32.4052 44.8349C32.3507 44.9361 32.2768 45.0253 32.1881 45.0971C32.0994 45.1688 31.9976 45.2218 31.8886 45.2528C31.7796 45.2839 31.6657 45.2924 31.5534 45.2779C31.4412 45.2633 31.3329 45.2261 31.2349 45.1682C31.0386 45.0483 30.896 44.8547 30.8374 44.6288C30.7789 44.4028 30.8091 44.1624 30.9216 43.9589L39.5934 28.0411C39.6467 27.941 39.7191 27.8529 39.8063 27.782C39.8936 27.7111 39.9939 27.6589 40.1013 27.6284C40.2086 27.5979 40.3209 27.5898 40.4314 27.6045C40.542 27.6193 40.6485 27.6566 40.7446 27.7143C40.94 27.8332 41.0835 28.0242 41.1453 28.2479C41.2072 28.4717 41.1828 28.7112 41.0771 28.9171H41.0899ZM54.2256 37.5133L52.9466 36.4609C52.8193 36.3547 52.7369 36.2026 52.7164 36.036C52.7199 35.9548 52.7406 35.8753 52.777 35.8031C52.8134 35.7309 52.8648 35.6676 52.9274 35.6176L54.2065 34.4671C54.4629 34.2621 54.6618 33.9915 54.7831 33.6827C54.9044 33.374 54.9437 33.0379 54.8971 32.7086C54.8187 32.3831 54.6599 32.0836 54.436 31.8387C54.2121 31.5938 53.9305 31.4117 53.6181 31.3097L52.0769 30.7344C51.9181 30.6786 51.7872 30.5612 51.7123 30.4075C51.6604 30.2432 51.6742 30.0646 51.7507 29.9107L52.5245 28.4922C52.6983 28.2094 52.7937 27.8836 52.8004 27.5497C52.8072 27.2158 52.7251 26.8863 52.5629 26.5964C52.3884 26.311 52.1449 26.0762 51.856 25.9148C51.567 25.7534 51.2422 25.6707 50.9129 25.6747L49.3141 25.6355C49.2196 25.6374 49.1259 25.6179 49.0396 25.5783C48.9533 25.5387 48.8767 25.4801 48.8153 25.4067C48.7518 25.3384 48.7035 25.2569 48.6737 25.1678C48.6439 25.0786 48.6333 24.984 48.6426 24.8902L48.7961 23.1514C48.8399 22.8206 48.7986 22.484 48.6764 22.1745C48.5541 21.865 48.3552 21.5934 48.099 21.3864C47.8207 21.1923 47.4989 21.0731 47.1636 21.04C46.8282 21.0069 46.49 21.0608 46.1805 21.1968L44.8311 21.7132C44.6829 21.7717 44.5188 21.7717 44.3706 21.7132C44.2999 21.6735 44.2387 21.6183 44.1911 21.5517C44.1436 21.485 44.111 21.4085 44.0957 21.3275L43.7311 19.7194C43.6754 19.3886 43.5355 19.0786 43.3256 18.8205C43.1157 18.5624 42.8432 18.3651 42.5352 18.2486C42.2162 18.1498 41.878 18.1345 41.5517 18.2042C41.2254 18.2738 40.9215 18.4262 40.6678 18.6473L39.3888 19.641C39.3236 19.6981 39.2469 19.7399 39.1642 19.7635C39.0815 19.787 38.9948 19.7918 38.9101 19.7775C38.8253 19.7632 38.7447 19.7301 38.6739 19.6805C38.603 19.631 38.5436 19.5661 38.4999 19.4906L37.5406 17.9806C37.3714 17.693 37.135 17.4528 36.8526 17.2816C36.5702 17.1105 36.2506 17.0137 35.9226 17C35.5859 17.0141 35.2585 17.1165 34.9718 17.2974C34.685 17.4783 34.4487 17.7316 34.2854 18.0329L33.4029 19.5102C33.3624 19.5844 33.3064 19.6486 33.239 19.6982C33.1716 19.7479 33.0944 19.7819 33.0128 19.7979C32.9309 19.8089 32.8477 19.8024 32.7684 19.7788C32.6891 19.7551 32.6156 19.7149 32.5523 19.6606L31.2733 18.6473C31.0197 18.4262 30.7157 18.2738 30.3894 18.2042C30.0631 18.1345 29.7249 18.1498 29.4059 18.2486C29.098 18.3651 28.8254 18.5624 28.6155 18.8205C28.4056 19.0786 28.2658 19.3886 28.21 19.7194L27.8902 21.3014C27.8752 21.3816 27.8434 21.4576 27.7971 21.5242C27.7507 21.5907 27.6909 21.6463 27.6216 21.6871C27.5497 21.726 27.4696 21.7464 27.3882 21.7464C27.3068 21.7464 27.2267 21.726 27.1548 21.6871L25.8054 21.1707C25.5009 21.0369 25.1681 20.9841 24.8382 21.0173C24.5084 21.0504 24.1921 21.1684 23.9188 21.3602C23.6622 21.5668 23.4629 21.8384 23.3406 22.148C23.2183 22.4576 23.1774 22.7945 23.2217 23.1252L23.3816 24.8641C23.3901 24.9583 23.3785 25.0533 23.3476 25.1424C23.3167 25.2316 23.2672 25.3128 23.2026 25.3805C23.0708 25.5197 22.8929 25.6036 22.7037 25.6159H21.1049C20.7698 25.6043 20.4376 25.6827 20.1414 25.8433C19.8451 26.0039 19.5952 26.241 19.4166 26.531C19.2544 26.821 19.1723 27.1505 19.1791 27.4844C19.1858 27.8183 19.2812 28.144 19.455 28.4268L20.216 29.8911C20.2925 30.045 20.3063 30.2236 20.2544 30.3879C20.2217 30.467 20.1719 30.5375 20.1088 30.5941C20.0456 30.6507 19.9708 30.6919 19.8898 30.7148L18.3486 31.29C18.0362 31.392 17.7546 31.5742 17.5307 31.8191C17.3068 32.064 17.148 32.3635 17.0696 32.689C17.021 33.0184 17.0594 33.3551 17.1808 33.6643C17.3022 33.9734 17.5023 34.2438 17.7602 34.4474L19.0393 35.598C19.1038 35.6467 19.1568 35.7096 19.1944 35.782C19.232 35.8543 19.2533 35.9344 19.2567 36.0163C19.2541 36.1015 19.2312 36.1847 19.19 36.2588C19.1487 36.3329 19.0904 36.3955 19.0201 36.4412L17.773 37.4937C17.4978 37.6809 17.2807 37.9447 17.1473 38.2539C17.0139 38.5631 16.9699 38.9048 17.0203 39.2388C17.0707 39.5728 17.2135 39.885 17.4319 40.1388C17.6502 40.3925 17.935 40.5771 18.2527 40.6707L19.909 41.3637C19.9912 41.3958 20.0659 41.4449 20.1286 41.5079C20.1913 41.5709 20.2407 41.6464 20.2736 41.7297C20.3006 41.8106 20.3095 41.8967 20.2996 41.9816C20.2896 42.0665 20.261 42.148 20.216 42.22L19.4486 43.6582C19.2746 43.9397 19.1759 44.2629 19.1625 44.5956C19.149 44.9283 19.2212 45.2587 19.3718 45.5539C19.5413 45.8436 19.7811 46.0836 20.0679 46.2508C20.3547 46.418 20.6788 46.5067 21.009 46.5083L22.6078 46.626C22.6958 46.6297 22.7822 46.6519 22.8614 46.6913C22.9406 46.7306 23.0111 46.7863 23.0683 46.8548C23.124 46.9227 23.1634 47.003 23.1834 47.0893C23.2034 47.1755 23.2034 47.2654 23.1834 47.3516L22.9404 48.7571C22.872 49.0826 22.8899 49.4208 22.9922 49.7368C23.0945 50.0529 23.2775 50.3352 23.5223 50.5548C23.7831 50.77 24.0945 50.9116 24.4255 50.9655C24.7565 51.0194 25.0956 50.9837 25.4089 50.862L27.0653 50.3652C27.226 50.3122 27.4007 50.3263 27.5513 50.4044C27.6203 50.4466 27.6787 50.5045 27.722 50.5737C27.7653 50.643 27.7922 50.7215 27.8007 50.8032L28.0117 52.1106C28.0498 52.4438 28.1733 52.7608 28.3699 53.0294C28.5664 53.2981 28.829 53.5088 29.1309 53.6403C29.4457 53.7649 29.786 53.8075 30.1209 53.7641C30.4559 53.7207 30.775 53.5928 31.0495 53.3919L32.4564 52.4505C32.6276 52.3404 32.8333 52.3007 33.032 52.3394C33.1304 52.3576 33.2241 52.3959 33.3076 52.4521C33.3912 52.5083 33.4627 52.5811 33.518 52.6663L34.4389 54.0456C34.6148 54.3307 34.8568 54.5671 35.1435 54.7336C35.4303 54.9001 35.7528 54.9916 36.0825 55C36.4144 54.9827 36.7368 54.881 37.0205 54.7041C37.3041 54.5271 37.5401 54.2806 37.7069 53.9868L38.551 52.6793C38.6033 52.5956 38.6716 52.5234 38.7519 52.4673C38.8321 52.4111 38.9226 52.3721 39.0179 52.3525C39.2104 52.3135 39.4102 52.3534 39.5743 52.4636L40.9812 53.405C41.2557 53.6059 41.5748 53.7338 41.9097 53.7772C42.2447 53.8205 42.5849 53.778 42.8998 53.6534C43.1984 53.517 43.458 53.3049 43.6538 53.0372C43.8497 52.7695 43.9754 52.455 44.0189 52.1237L44.23 50.8163C44.2396 50.7341 44.2677 50.6554 44.3121 50.5862C44.3565 50.517 44.4159 50.4593 44.4858 50.4175C44.5585 50.3768 44.6388 50.3522 44.7215 50.3455C44.8041 50.3387 44.8873 50.3499 44.9654 50.3783L46.6218 50.8751C46.9406 50.9958 47.2843 51.0309 47.6202 50.9771C47.9561 50.9233 48.2729 50.7824 48.5403 50.5679C48.7749 50.3393 48.9463 50.0515 49.0372 49.7336C49.1282 49.4157 49.1355 49.0788 49.0583 48.7571L48.8281 47.3778C48.8113 47.2914 48.8129 47.2023 48.8328 47.1166C48.8527 47.0308 48.8903 46.9505 48.9432 46.881C49.0004 46.8125 49.0708 46.7568 49.1501 46.7174C49.2293 46.678 49.3156 46.6558 49.4037 46.6522L51.0025 46.5345C51.3314 46.5268 51.6533 46.4355 51.9391 46.2689C52.2249 46.1022 52.4657 45.8655 52.6396 45.5801C52.7948 45.2862 52.8696 44.9551 52.8561 44.6214C52.8426 44.2878 52.7413 43.9641 52.5629 43.6843L51.7955 42.22C51.7499 42.147 51.7211 42.0644 51.7111 41.9783C51.7011 41.8923 51.7103 41.8051 51.7379 41.7232C51.7708 41.6398 51.8201 41.5643 51.8829 41.5013C51.9456 41.4383 52.0203 41.3893 52.1024 41.3571L53.7588 40.6642C54.0707 40.5596 54.3495 40.3718 54.5665 40.1201C54.7835 39.8684 54.9308 39.562 54.9931 39.2326C55.0209 38.9027 54.9648 38.5711 54.8304 38.2699C54.6959 37.9687 54.4876 37.7081 54.2256 37.5133ZM53.0681 39.0822L51.4118 39.7752C51.1038 39.8992 50.8247 40.0878 50.5923 40.3287C50.3599 40.5696 50.1794 40.8576 50.0624 41.1741C49.9447 41.4853 49.8991 41.8202 49.9291 42.1525C49.959 42.4847 50.0637 42.8054 50.235 43.0895L51.0025 44.5211C51.0442 44.5859 51.0705 44.6597 51.0792 44.7368C51.0792 44.7368 51.0025 44.7891 50.849 44.7891L49.2502 44.9068C48.9191 44.9281 48.5959 45.0193 48.3009 45.1746C48.006 45.3298 47.7456 45.5458 47.5363 45.8089C47.3339 46.0704 47.1881 46.3729 47.1088 46.6964C47.0294 47.0198 47.0181 47.3568 47.0758 47.685L47.3124 49.0643C47.3124 49.1755 47.3124 49.2343 47.3124 49.2539C47.232 49.2546 47.1519 49.2414 47.0758 49.2147L45.4195 48.7179C45.1019 48.6163 44.7669 48.5842 44.4364 48.6237C44.1058 48.6631 43.7871 48.7731 43.5009 48.9467C43.2231 49.1231 42.9849 49.3576 42.802 49.6348C42.619 49.9119 42.4954 50.2254 42.4393 50.5548L42.2283 51.8622C42.2283 52.0126 42.1515 52.0714 42.1707 52.0714C42.0918 52.063 42.0177 52.0286 41.9597 51.9733L40.5527 51.0385C40.2752 50.8449 39.9614 50.7124 39.6311 50.6494C39.3008 50.5864 38.9613 50.5942 38.6342 50.6725C38.3088 50.7399 37.9999 50.873 37.7254 51.0638C37.4509 51.2546 37.2164 51.4993 37.0354 51.7838L36.204 53.1239C36.1681 53.1932 36.1152 53.2518 36.0505 53.2938C36.0505 53.2938 35.9546 53.2546 35.8714 53.1239L34.925 51.7445C34.7381 51.4653 34.4989 51.2267 34.2211 51.0427C33.9434 50.8586 33.6327 50.7328 33.307 50.6725C33.1412 50.6336 32.9718 50.6138 32.8017 50.6136C32.3033 50.6194 31.8163 50.7665 31.3948 51.0385L29.9879 51.9733C29.9239 52.0189 29.8524 52.0521 29.7768 52.0714C29.7291 52.0049 29.7023 51.9251 29.7001 51.8426L29.489 50.5352C29.4341 50.2054 29.3109 49.8914 29.1279 49.6141C28.9448 49.3368 28.706 49.1026 28.4274 48.9271C28.1391 48.7591 27.8206 48.6522 27.491 48.6129C27.1613 48.5736 26.8273 48.6026 26.5089 48.6983L24.8525 49.1951C24.7889 49.2188 24.722 49.232 24.6543 49.2343C24.6433 49.165 24.6433 49.0944 24.6543 49.0251L24.8909 47.6458C24.9485 47.3158 24.9348 46.9769 24.8508 46.6528C24.7669 46.3287 24.6147 46.0273 24.4049 45.7697C24.1932 45.5092 23.9324 45.295 23.6379 45.14C23.3434 44.985 23.0213 44.8923 22.6909 44.8675L21.0921 44.7564C21.0129 44.749 20.9352 44.7292 20.8619 44.6976C20.866 44.6155 20.8926 44.5362 20.9387 44.4688L21.7061 43.0306C21.8683 42.743 21.9678 42.4229 21.9976 42.0923C22.0274 41.7616 21.9869 41.4283 21.8788 41.1153C21.7653 40.7978 21.5868 40.5087 21.3552 40.2674C21.1235 40.0262 20.8442 39.8383 20.5358 39.7163L18.873 39.0234C18.8123 39.0082 18.7542 38.9839 18.7003 38.9515C18.7376 38.893 18.7828 38.8401 18.8346 38.7946L20.1137 37.7421C20.3741 37.5391 20.586 37.2783 20.7333 36.9793C20.8807 36.6804 20.9596 36.3511 20.9642 36.0163C20.9685 35.6814 20.8996 35.3496 20.7624 35.0454C20.6252 34.7411 20.4232 34.4721 20.1712 34.2579L18.8922 33.1073L18.7579 32.9766C18.8096 32.9342 18.868 32.9011 18.9306 32.8785L20.4718 32.3033C20.7791 32.1954 21.061 32.0235 21.2999 31.7984C21.5388 31.5734 21.7294 31.3001 21.8596 30.9959C21.9787 30.6867 22.0285 30.3541 22.0052 30.0226C21.982 29.6911 21.8863 29.3692 21.7253 29.0805L20.977 27.6424C20.9418 27.5837 20.9159 27.5197 20.9003 27.4528C20.9657 27.4198 21.0388 27.4062 21.1113 27.4136L22.7101 27.3743C23.04 27.3622 23.364 27.2811 23.6621 27.1361C23.9601 26.991 24.226 26.7851 24.4432 26.531C24.6677 26.2877 24.8377 25.9974 24.9415 25.6802C25.0453 25.363 25.0804 25.0266 25.0444 24.6941L24.8909 22.9487C24.8799 22.8795 24.8799 22.8088 24.8909 22.7395C24.9629 22.7404 25.0342 22.7536 25.1019 22.7788L26.4513 23.2952C26.7601 23.4165 27.0903 23.4704 27.4207 23.4535C27.7511 23.4366 28.0744 23.3493 28.3699 23.1971C28.6609 23.0398 28.9152 22.8198 29.115 22.5524C29.3148 22.2849 29.4555 21.9763 29.5274 21.6479L29.8919 20.0397C29.9054 19.9749 29.9247 19.9114 29.9495 19.8502C30.0165 19.8734 30.0809 19.9041 30.1413 19.9417L31.4204 20.9419C31.6835 21.1501 31.9853 21.3015 32.3074 21.387C32.6295 21.4724 32.9652 21.49 33.2942 21.4387C33.6199 21.3795 33.9294 21.2498 34.2018 21.0581C34.4743 20.8664 34.7034 20.6172 34.8738 20.3274L35.7563 18.85C35.8139 18.7585 35.8714 18.7193 35.8714 18.6996C35.9246 18.7432 35.9719 18.7938 36.0121 18.85L36.9714 20.3666C37.1485 20.6508 37.3825 20.8934 37.6582 21.0782C37.9338 21.263 38.2447 21.3859 38.5702 21.4387C38.8992 21.49 39.2349 21.4724 39.557 21.387C39.8791 21.3015 40.1809 21.1501 40.444 20.9419L41.723 19.9417C41.819 19.8698 41.8765 19.8502 41.8957 19.8306C41.9398 19.8842 41.9666 19.9504 41.9725 20.0201L42.337 21.6282C42.4043 21.9585 42.5432 22.2692 42.7435 22.5373C42.9439 22.8055 43.2005 23.0242 43.4945 23.1775C43.7899 23.3297 44.1132 23.417 44.4436 23.4339C44.7741 23.4508 45.1043 23.3969 45.4131 23.2756L46.7625 22.7592C46.8776 22.7199 46.9543 22.7199 46.9543 22.7003C46.9589 22.77 46.9589 22.8399 46.9543 22.9095L46.8008 24.6549C46.7638 24.9919 46.7964 25.333 46.8967 25.6562C46.9969 25.9794 47.1626 26.2775 47.3828 26.531C47.6068 26.7788 47.8775 26.9778 48.1786 27.116C48.4797 27.2541 48.8051 27.3287 49.1351 27.3351L50.7339 27.3743C50.8041 27.368 50.8747 27.368 50.9449 27.3743C50.9313 27.448 50.9053 27.5188 50.8682 27.5835L50.1199 29.0217C49.9593 29.3105 49.8639 29.6324 49.8407 29.9638C49.8174 30.2952 49.867 30.6277 49.9856 30.937C50.1064 31.2509 50.2933 31.5338 50.5332 31.7654C50.7731 31.997 51.0599 32.1718 51.3734 32.2771L52.9146 32.8524C53.0106 32.8916 53.0681 32.9308 53.0873 32.9308C53.0458 32.9839 53.0009 33.0341 52.953 33.0812L51.674 34.2317C51.4232 34.4484 51.2222 34.7189 51.0851 35.0239C50.9481 35.329 50.8784 35.6611 50.881 35.9967C50.8948 36.3287 50.9779 36.6538 51.1246 36.9503C51.2713 37.2468 51.4782 37.5078 51.7315 37.716L53.0106 38.7684C53.0873 38.8273 53.1257 38.8861 53.1449 38.8861C53.2024 39.0103 53.1449 39.043 53.0681 39.0822Z" fill="white"/>
</g>
<defs>
<clipPath id="clip0_258_50359">
<rect width="72" height="72" fill="white"/>
</clipPath>
</defs>
</svg>
