<svg width="24" height="24" viewBox="0 0 24 24" fill="none" xmlns="http://www.w3.org/2000/svg">
<path d="M15.3002 2C15.5271 2.09398 15.5886 2.26852 15.5886 2.49228C15.5886 4.89998 15.5886 7.31215 15.5886 9.71985C15.5886 9.80488 15.5838 9.88991 15.5555 9.97046C15.4988 10.1405 15.3617 10.2211 15.1774 10.2077C14.993 10.1942 14.8749 10.0913 14.8465 9.91676C14.8323 9.83173 14.8323 9.7467 14.8323 9.66167C14.8323 7.43298 14.8323 5.20877 14.8323 2.98009C14.8323 2.89953 14.8323 2.8145 14.8323 2.72052H2.77041V21.2795H14.8323V21.0244C14.8323 18.7957 14.8323 16.5715 14.8323 14.3428C14.8323 14.2578 14.8323 14.1727 14.8465 14.0877C14.8749 13.9087 14.993 13.8102 15.1774 13.7968C15.3617 13.7834 15.4988 13.864 15.5555 14.034C15.5791 14.1056 15.5838 14.1862 15.5838 14.2667C15.5838 16.6834 15.5838 19.1 15.5838 21.5122C15.5838 21.8836 15.4562 22 15.0639 22C10.881 22 6.70282 22 2.51991 22C2.12289 22 2.00473 21.8881 2.00473 21.5077C2 15.1752 2 8.83374 2 2.4878C2 2.27299 2.06617 2.11188 2.25996 2H15.3002Z" fill="black"/>
<path d="M20.7026 11.6487C20.6222 11.5681 20.575 11.5144 20.523 11.4697C19.3319 10.3419 18.1409 9.21414 16.9498 8.08637C16.6851 7.83576 16.652 7.63437 16.8363 7.46431C17.0207 7.29872 17.2192 7.33005 17.4791 7.57619C18.9113 8.93668 20.3481 10.2927 21.7802 11.6532C22.0733 11.9306 22.0733 12.0828 21.7802 12.3603C20.3434 13.7252 18.9018 15.0857 17.4602 16.4507C17.4035 16.5044 17.3421 16.5625 17.2712 16.5983C17.1058 16.6834 16.9498 16.661 16.8222 16.5312C16.704 16.4104 16.6804 16.2627 16.7749 16.1195C16.8222 16.0479 16.8836 15.9852 16.9498 15.9271C18.1409 14.7993 19.3319 13.6715 20.523 12.5437C20.575 12.4945 20.6222 12.4453 20.7026 12.3647C20.5844 12.3647 20.5088 12.3647 20.4379 12.3647C16.7513 12.3647 13.0646 12.3647 9.378 12.3647C9.2882 12.3647 9.19839 12.3647 9.10859 12.3558C8.91953 12.3289 8.78719 12.1723 8.79192 11.9978C8.79664 11.8322 8.92899 11.689 9.10859 11.6621C9.19839 11.6487 9.2882 11.6532 9.378 11.6532C13.0646 11.6532 16.7513 11.6532 20.4379 11.6532H20.7026V11.6487Z" fill="black"/>
</svg>
