<svg width="72" height="72" viewBox="0 0 72 72" fill="none" xmlns="http://www.w3.org/2000/svg">
<g clip-path="url(#clip0_258_50371)">
<path d="M36 72C55.8822 72 72 55.8822 72 36C72 16.1177 55.8822 0 36 0C16.1177 0 0 16.1177 0 36C0 55.8822 16.1177 72 36 72Z" fill="#E44A00"/>
<path fill-rule="evenodd" clip-rule="evenodd" d="M47.2022 53.4693H41.7854C41.7854 53.4309 41.7854 53.3926 41.7854 53.3542V51.4368C41.7854 51.2373 41.7107 51.0457 41.5774 50.9035C41.444 50.7612 41.2627 50.6796 41.0725 50.6762H30.9336C30.8374 50.6745 30.7418 50.693 30.6524 50.7304C30.563 50.7679 30.4816 50.8236 30.413 50.8944C30.3444 50.9652 30.2899 51.0496 30.2527 51.1428C30.2155 51.2359 30.1963 51.3358 30.1963 51.4368V53.3542C30.1963 53.3926 30.1963 53.4309 30.1963 53.4693H24.7978C24.6966 53.4595 24.5946 53.4721 24.4983 53.506C24.4019 53.54 24.3134 53.5947 24.2383 53.6665C24.1632 53.7384 24.1033 53.8259 24.0622 53.9234C24.0212 54.021 24 54.1264 24 54.233C24 54.3396 24.0212 54.4451 24.0622 54.5426C24.1033 54.6402 24.1632 54.7277 24.2383 54.7995C24.3134 54.8714 24.4019 54.9261 24.4983 54.96C24.5946 54.994 24.6966 55.0065 24.7978 54.9968H47.2022C47.3034 55.0065 47.4054 54.994 47.5018 54.96C47.5981 54.9261 47.6866 54.8714 47.7617 54.7995C47.8368 54.7277 47.8967 54.6402 47.9378 54.5426C47.9788 54.4451 48 54.3396 48 54.233C48 54.1264 47.9788 54.021 47.9378 53.9234C47.8967 53.8259 47.8368 53.7384 47.7617 53.6665C47.6866 53.5947 47.5981 53.54 47.5018 53.506C47.4054 53.4721 47.3034 53.4595 47.2022 53.4693ZM31.6343 53.4693C31.6545 53.4342 31.667 53.3949 31.6709 53.3542V52.2038H40.3291V53.3542C40.3291 53.3926 40.3291 53.4309 40.3291 53.4693H31.6343ZM28.1003 49.8326H43.7108C43.8092 49.8334 43.9067 49.8137 43.9977 49.7744C44.0886 49.7351 44.1712 49.6771 44.2405 49.6039C44.3097 49.5306 44.3643 49.4435 44.401 49.3478C44.4377 49.2521 44.4558 49.1496 44.4542 49.0464V39.5553C44.5416 39.5906 44.6347 39.6079 44.7284 39.6064C44.8214 39.6115 44.9145 39.5972 45.0021 39.5641C45.0898 39.5311 45.1703 39.4801 45.239 39.414C45.3076 39.348 45.363 39.2682 45.4019 39.1794C45.4409 39.0906 45.4625 38.9946 45.4656 38.8969V28.4023C45.4542 28.2827 45.4163 28.1675 45.355 28.0659C45.2937 27.9643 45.2107 27.8791 45.1125 27.8171C45.0143 27.755 44.9037 27.7178 44.7894 27.7085C44.6751 27.6991 44.5603 27.7179 44.4542 27.7632V17.7799C44.4558 17.677 44.4377 17.5748 44.4009 17.4794C44.3642 17.384 44.3095 17.2974 44.2401 17.2246C44.1708 17.1519 44.0882 17.0945 43.9972 17.0559C43.9063 17.0174 43.8089 16.9984 43.7108 17.0001H28.1003C28.0022 16.9984 27.9048 17.0174 27.8139 17.0559C27.723 17.0945 27.6404 17.1519 27.571 17.2246C27.5016 17.2974 27.4469 17.384 27.4102 17.4794C27.3734 17.5748 27.3553 17.677 27.3569 17.7799V28.1914C27.3553 28.2943 27.3734 28.3964 27.4102 28.4918C27.4469 28.5872 27.5016 28.6739 27.571 28.7466C27.6404 28.8194 27.723 28.8767 27.8139 28.9153C27.9048 28.9539 28.0022 28.9729 28.1003 28.9711H28.2404V37.836H28.1003C28.0019 37.8351 27.9044 37.8549 27.8134 37.8942C27.7225 37.9335 27.6399 37.9914 27.5707 38.0647C27.5014 38.138 27.4468 38.225 27.4101 38.3207C27.3734 38.4165 27.3553 38.5189 27.3569 38.6221V49.0273C27.3528 49.132 27.369 49.2366 27.4046 49.3345C27.4402 49.4325 27.4944 49.5219 27.5639 49.5972C27.6334 49.6725 27.7168 49.7322 27.8091 49.7727C27.9013 49.8132 28.0004 49.8335 28.1003 49.8326ZM28.8376 39.4019H33.1027C33.2891 39.3842 33.4623 39.2941 33.5885 39.1492C33.7147 39.0043 33.7847 38.8152 33.7847 38.6189C33.7847 38.4227 33.7147 38.2335 33.5885 38.0887C33.4623 37.9438 33.2891 37.8537 33.1027 37.836H29.7272V28.952H33.1088C33.2951 28.9343 33.4684 28.8442 33.5946 28.6993C33.7208 28.5544 33.7908 28.3653 33.7908 28.169C33.7908 27.9728 33.7208 27.7836 33.5946 27.6388C33.4684 27.4939 33.2951 27.4038 33.1088 27.3861H28.8437V18.566H42.9796V28.1914C42.9774 28.3187 43.0055 28.4446 43.0613 28.5578C43.1171 28.6709 43.1989 28.7676 43.2992 28.8393C43.3996 28.911 43.5154 28.9553 43.6362 28.9683C43.757 28.9812 43.879 28.9625 43.9911 28.9136V37.8615C43.8785 37.8125 43.7559 37.7937 43.6347 37.807C43.5134 37.8203 43.3972 37.8652 43.2966 37.9376C43.1961 38.01 43.1144 38.1076 43.0591 38.2216C43.0037 38.3356 42.9764 38.4623 42.9796 38.5902V48.2667H28.8376V39.4019ZM34.7662 25.0788L41.3528 27.3797V25.7371L40.1342 25.3217V22.4903L41.3528 22.0749V20.4323L34.7662 22.7332V25.0788ZM38.9034 22.9505V24.9062L36.0884 23.9092L38.9034 22.9505ZM39.4274 27.6417C38.5462 27.2905 37.5728 27.2905 36.6916 27.6417C36.1216 27.8669 35.6313 28.2702 35.2869 28.7972C34.9426 29.3241 34.7608 29.9493 34.7662 30.5882V34.2888H41.3528V30.569C41.3556 29.9308 41.1728 29.3068 40.8287 28.7804C40.4847 28.2539 39.9959 27.85 39.4274 27.6226V27.6417ZM40.1342 32.4672H35.9787V31.0931C35.9737 30.7201 36.0796 30.3548 36.2816 30.0479C36.4836 29.7409 36.7717 29.5076 37.1059 29.3802C37.7216 29.1436 38.3973 29.1436 39.013 29.3802C39.3426 29.5122 39.6263 29.746 39.8264 30.0507C40.0266 30.3554 40.1339 30.7166 40.1342 31.0867V32.4672ZM34.7662 39.4977L41.3528 42.0862H40.1342V44.7259H34.7662V46.4068H41.3528V42.0415V40.2455L40.1342 39.779V36.5833L41.3528 36.1167V34.2696L34.7662 36.8581V39.4977ZM38.9034 37.0498V39.2676L36.0884 38.1492L38.9034 37.0498Z" fill="white"/>
</g>
<defs>
<clipPath id="clip0_258_50371">
<rect width="72" height="72" fill="white"/>
</clipPath>
</defs>
</svg>
