<svg width="72" height="72" viewBox="0 0 72 72" fill="none" xmlns="http://www.w3.org/2000/svg">
<g clip-path="url(#clip0_258_50355)">
<path d="M36 72C55.8822 72 72 55.8822 72 36C72 16.1177 55.8822 0 36 0C16.1177 0 0 16.1177 0 36C0 55.8822 16.1177 72 36 72Z" fill="#E44A00"/>
<path fill-rule="evenodd" clip-rule="evenodd" d="M24.0105 17.8725C24.0146 17.7541 24.0417 17.6377 24.0905 17.5299C24.1392 17.4222 24.2085 17.3251 24.2944 17.2444C24.3803 17.1637 24.4812 17.1008 24.5912 17.0594C24.7013 17.018 24.8183 16.9989 24.9357 17.0032H47.0643C47.1833 16.9929 47.3031 17.0076 47.4161 17.0464C47.5291 17.0853 47.6329 17.1474 47.7209 17.2288C47.8089 17.3103 47.8791 17.4092 47.9271 17.5195C47.9752 17.6297 48 17.7489 48 17.8693C48 17.9897 47.9752 18.1089 47.9271 18.2191C47.8791 18.3294 47.8089 18.4283 47.7209 18.5098C47.6329 18.5912 47.5291 18.6533 47.4161 18.6922C47.3031 18.731 47.1833 18.7457 47.0643 18.7354H24.9357C24.6997 18.7441 24.4699 18.6582 24.2966 18.4965C24.1232 18.3348 24.0204 18.1104 24.0105 17.8725ZM47.0643 53.2646H24.9357C24.8167 53.2543 24.6969 53.269 24.5839 53.3078C24.4709 53.3467 24.3671 53.4088 24.2791 53.4902C24.1911 53.5717 24.1209 53.6706 24.0729 53.7809C24.0248 53.8911 24 54.0103 24 54.1307C24 54.2511 24.0248 54.3703 24.0729 54.4805C24.1209 54.5908 24.1911 54.6897 24.2791 54.7712C24.3671 54.8526 24.4709 54.9147 24.5839 54.9536C24.6969 54.9924 24.8167 55.0071 24.9357 54.9968H47.0643C47.1833 55.0071 47.3031 54.9924 47.4161 54.9536C47.5291 54.9147 47.6329 54.8526 47.7209 54.7712C47.8089 54.6897 47.8791 54.5908 47.9271 54.4805C47.9752 54.3703 48 54.2511 48 54.1307C48 54.0103 47.9752 53.8911 47.9271 53.7809C47.8791 53.6706 47.8089 53.5717 47.7209 53.4902C47.6329 53.4088 47.5291 53.3467 47.4161 53.3078C47.3031 53.269 47.1833 53.2543 47.0643 53.2646ZM45.4167 25.057V20.5188C45.4271 20.3962 45.4121 20.2728 45.3726 20.1563C45.3332 20.0399 45.2703 19.933 45.1878 19.8424C45.1053 19.7518 45.005 19.6795 44.8933 19.63C44.7817 19.5805 44.661 19.555 44.5391 19.555C44.4171 19.555 44.2965 19.5805 44.1848 19.63C44.0731 19.6795 43.9729 19.7518 43.8904 19.8424C43.8079 19.933 43.7449 20.0399 43.7055 20.1563C43.6661 20.2728 43.6511 20.3962 43.6614 20.5188V25.089C43.6651 26.7211 43.0403 28.291 41.9187 29.4675L37.1153 34.4979C36.9554 34.6717 36.8666 34.9 36.8666 35.1371C36.8666 35.3742 36.9554 35.6025 37.1153 35.7763L41.9187 40.8131C43.0364 41.9999 43.6602 43.5739 43.6614 45.2108V51.4685C43.6511 51.591 43.6661 51.7145 43.7055 51.8309C43.7449 51.9473 43.8079 52.0542 43.8904 52.1448C43.9729 52.2354 44.0731 52.3077 44.1848 52.3572C44.2965 52.4067 44.4171 52.4322 44.5391 52.4322C44.661 52.4322 44.7817 52.4067 44.8933 52.3572C45.005 52.3077 45.1053 52.2354 45.1878 52.1448C45.2703 52.0542 45.3332 51.9473 45.3726 51.8309C45.4121 51.7145 45.4271 51.591 45.4167 51.4685V45.2172C45.4267 43.0984 44.62 41.0586 43.1671 39.5283L38.9847 35.1499L43.1671 30.7522C44.6196 29.2243 45.4263 27.1866 45.4167 25.0698V25.057ZM26.5833 45.3194V51.4876C26.5799 51.6071 26.6001 51.726 26.6427 51.8374C26.6853 51.9489 26.7494 52.0507 26.8314 52.137C26.9134 52.2232 27.0115 52.2922 27.1201 52.3398C27.2288 52.3874 27.3457 52.4128 27.4641 52.4145C27.5798 52.412 27.6939 52.3865 27.7998 52.3396C27.9057 52.2926 28.0014 52.225 28.0814 52.1407C28.1615 52.0564 28.2243 51.9571 28.2662 51.8483C28.3082 51.7395 28.3285 51.6235 28.3259 51.5068V45.3386C28.3208 43.6867 28.9499 42.0969 30.0813 40.9026L34.8847 35.853C35.0419 35.6778 35.1289 35.45 35.1289 35.2138C35.1289 34.9775 35.0419 34.7497 34.8847 34.5746L30.0813 29.4866C28.9595 28.3051 28.3349 26.7313 28.3386 25.0954V20.5251C28.3489 20.4026 28.3339 20.2792 28.2945 20.1627C28.2551 20.0463 28.1922 19.9394 28.1096 19.8488C28.0271 19.7582 27.9269 19.6859 27.8152 19.6364C27.7035 19.5869 27.5829 19.5614 27.4609 19.5614C27.339 19.5614 27.2183 19.5869 27.1067 19.6364C26.995 19.6859 26.8947 19.7582 26.8122 19.8488C26.7297 19.9394 26.6668 20.0463 26.6274 20.1627C26.5879 20.2792 26.5729 20.4026 26.5833 20.5251V25.0954C26.5731 27.2192 27.3821 29.2638 28.8392 30.797L33.0343 35.2138L28.8392 39.6114C27.3805 41.1462 26.5714 43.1934 26.5833 45.3194ZM30.0052 51.4876V48.6752C30.0052 46.7576 33.8074 44.84 36.0634 43.8493C36.297 43.7537 36.5584 43.7537 36.7921 43.8493C39.0671 44.8336 42.8503 46.764 42.8503 48.6752V51.4876C42.8528 51.6084 42.8314 51.7285 42.7873 51.8409C42.7432 51.9532 42.6773 52.0555 42.5935 52.1419C42.5097 52.2282 42.4096 52.2968 42.2992 52.3436C42.1888 52.3904 42.0702 52.4145 41.9504 52.4145H30.9304C30.8092 52.4153 30.6891 52.392 30.5769 52.3458C30.4646 52.2996 30.3626 52.2314 30.2766 52.1453C30.1906 52.0591 30.1224 51.9567 30.0758 51.8438C30.0292 51.7309 30.0052 51.6099 30.0052 51.4876ZM31.8049 48.7135V50.5864H40.9935V48.6688C40.8414 48.1255 38.6995 46.7512 36.3929 45.6966C34.0989 46.764 31.995 48.151 31.8049 48.7135ZM36.8745 32.5228C36.872 32.4097 36.8474 32.2983 36.8021 32.1949C36.7567 32.0915 36.6915 31.9982 36.6102 31.9204C36.5289 31.8425 36.4331 31.7817 36.3284 31.7414C36.2237 31.7011 36.112 31.682 36 31.6854C35.772 31.6888 35.5544 31.7825 35.3943 31.9464C35.2342 32.1103 35.1445 32.3311 35.1445 32.5611C35.1445 32.79 35.2346 33.0095 35.3951 33.1713C35.5555 33.3331 35.7731 33.4241 36 33.4241C36.2269 33.4241 36.4445 33.3331 36.6049 33.1713C36.7654 33.0095 36.8555 32.79 36.8555 32.5611L36.8745 32.5228ZM36 40.3273C35.8919 40.3213 35.7837 40.3372 35.6818 40.374C35.5799 40.4108 35.4863 40.4678 35.4066 40.5417C35.3269 40.6156 35.2626 40.7048 35.2176 40.8041C35.1726 40.9034 35.1477 41.0108 35.1445 41.1199V42.1746C35.17 42.3854 35.2711 42.5794 35.4287 42.7202C35.5863 42.861 35.7895 42.9387 36 42.9387C36.2105 42.9387 36.4137 42.861 36.5713 42.7202C36.7289 42.5794 36.83 42.3854 36.8555 42.1746V41.1199C36.8523 41.0108 36.8274 40.9034 36.7824 40.8041C36.7374 40.7048 36.6731 40.6156 36.5934 40.5417C36.5137 40.4678 36.4201 40.4108 36.3182 40.374C36.2163 40.3372 36.1081 40.3213 36 40.3273Z" fill="white"/>
</g>
<defs>
<clipPath id="clip0_258_50355">
<rect width="72" height="72" fill="white"/>
</clipPath>
</defs>
</svg>
