<svg width="111" height="110" viewBox="0 0 111 110" fill="none" xmlns="http://www.w3.org/2000/svg">
<path fill-rule="evenodd" clip-rule="evenodd" d="M32.5201 20.6532C32.5279 20.4289 32.58 20.2083 32.6734 20.0041C32.7668 19.7999 32.8996 19.616 33.0643 19.4631C33.229 19.3101 33.4223 19.191 33.6332 19.1126C33.8441 19.0342 34.0684 18.998 34.2934 19.0061H76.7067C76.9347 18.9865 77.1643 19.0144 77.3809 19.088C77.5975 19.1616 77.7964 19.2793 77.965 19.4336C78.1337 19.5879 78.2683 19.7754 78.3604 19.9843C78.4525 20.1932 78.5 20.4189 78.5 20.6471C78.5 20.8753 78.4525 21.101 78.3604 21.3099C78.2683 21.5188 78.1337 21.7063 77.965 21.8606C77.7964 22.0149 77.5975 22.1326 77.3809 22.2062C77.1643 22.2798 76.9347 22.3077 76.7067 22.2881H34.2934C33.8411 22.3045 33.4007 22.1418 33.0684 21.8354C32.7362 21.5291 32.539 21.104 32.5201 20.6532ZM76.7067 87.7119H34.2934C34.0653 87.6923 33.8357 87.7202 33.6191 87.7938C33.4025 87.8674 33.2036 87.9851 33.035 88.1394C32.8664 88.2937 32.7317 88.4812 32.6396 88.6901C32.5476 88.899 32.5 89.1247 32.5 89.3529C32.5 89.5811 32.5476 89.8068 32.6396 90.0157C32.7317 90.2246 32.8664 90.4121 33.035 90.5664C33.2036 90.7207 33.4025 90.8384 33.6191 90.912C33.8357 90.9856 34.0653 91.0135 34.2934 90.9939H76.7067C76.9347 91.0135 77.1643 90.9856 77.3809 90.912C77.5975 90.8384 77.7964 90.7207 77.965 90.5664C78.1337 90.4121 78.2683 90.2246 78.3604 90.0157C78.4525 89.8068 78.5 89.5811 78.5 89.3529C78.5 89.1247 78.4525 88.899 78.3604 88.6901C78.2683 88.4812 78.1337 88.2937 77.965 88.1394C77.7964 87.9851 77.5975 87.8674 77.3809 87.7938C77.1643 87.7202 76.9347 87.6923 76.7067 87.7119ZM73.5487 34.2659V25.6671C73.5685 25.4349 73.5398 25.201 73.4642 24.9804C73.3887 24.7599 73.268 24.5573 73.1099 24.3856C72.9517 24.214 72.7596 24.0769 72.5455 23.9832C72.3315 23.8894 72.1003 23.841 71.8665 23.841C71.6328 23.841 71.4016 23.8894 71.1875 23.9832C70.9735 24.0769 70.7813 24.214 70.6232 24.3856C70.4651 24.5573 70.3444 24.7599 70.2688 24.9804C70.1933 25.201 70.1645 25.4349 70.1843 25.6671V34.3265C70.1915 37.419 68.9939 40.3934 66.8442 42.6225L57.6377 52.1539C57.3312 52.4832 57.1609 52.9158 57.1609 53.365C57.1609 53.8142 57.3312 54.2468 57.6377 54.5761L66.8442 64.1196C68.9865 66.3682 70.182 69.3505 70.1843 72.452V84.3087C70.1645 84.5409 70.1933 84.7747 70.2688 84.9953C70.3444 85.2159 70.4651 85.4185 70.6232 85.5901C70.7813 85.7618 70.9735 85.8988 71.1875 85.9926C71.4016 86.0863 71.6328 86.1348 71.8665 86.1348C72.1003 86.1348 72.3315 86.0863 72.5455 85.9926C72.7596 85.8988 72.9517 85.7618 73.1099 85.5901C73.268 85.4185 73.3887 85.2159 73.4642 84.9953C73.5398 84.7747 73.5685 84.5409 73.5487 84.3087V72.4641C73.5678 68.4495 72.0217 64.5847 69.237 61.6853L61.2207 53.3892L69.237 45.0569C72.021 42.1619 73.5672 38.301 73.5487 34.2902V34.2659ZM37.4513 72.6579V84.345C37.4448 84.5713 37.4835 84.7966 37.5652 85.0078C37.6468 85.219 37.7698 85.4119 37.9269 85.5753C38.084 85.7387 38.2721 85.8694 38.4803 85.9596C38.6884 86.0499 38.9125 86.098 39.1395 86.1011C39.3613 86.0964 39.5799 86.0481 39.7829 85.9591C39.9859 85.8702 40.1694 85.7422 40.3228 85.5825C40.4762 85.4227 40.5965 85.2345 40.6769 85.0284C40.7573 84.8223 40.7962 84.6024 40.7914 84.3813V72.6942C40.7815 69.5643 41.9872 66.5521 44.1558 64.2892L53.3623 54.7214C53.6636 54.3896 53.8305 53.958 53.8305 53.5103C53.8305 53.0627 53.6636 52.6311 53.3623 52.2992L44.1558 42.6589C42.0057 40.4202 40.8086 37.4383 40.8157 34.3386V25.6792C40.8355 25.447 40.8067 25.2131 40.7312 24.9926C40.6556 24.772 40.535 24.5694 40.3768 24.3978C40.2187 24.2261 40.0265 24.089 39.8125 23.9953C39.5985 23.9015 39.3672 23.8531 39.1335 23.8531C38.8997 23.8531 38.6685 23.9015 38.4545 23.9953C38.2404 24.089 38.0483 24.2261 37.8901 24.3978C37.732 24.5694 37.6113 24.772 37.5358 24.9926C37.4602 25.2131 37.4315 25.447 37.4513 25.6792V34.3386C37.4317 38.3627 38.9823 42.2367 41.7752 45.1416L49.8157 53.5103L41.7752 61.8427C38.9794 64.7506 37.4286 68.6296 37.4513 72.6579ZM44.01 84.345V79.0161C44.01 75.3828 51.2975 71.7495 55.6215 69.8723C56.0693 69.6912 56.5704 69.6912 57.0182 69.8723C61.3786 71.7374 68.6297 75.395 68.6297 79.0161V84.345C68.6345 84.5739 68.5935 84.8014 68.509 85.0143C68.4245 85.2271 68.2982 85.421 68.1376 85.5846C67.9769 85.7482 67.7852 85.8781 67.5735 85.9668C67.3618 86.0555 67.1345 86.1011 66.905 86.1011H45.7833C45.551 86.1027 45.3207 86.0584 45.1056 85.9709C44.8906 85.8834 44.695 85.7543 44.5301 85.591C44.3653 85.4278 44.2345 85.2337 44.1452 85.0198C44.056 84.806 44.01 84.5766 44.01 84.345ZM47.4595 79.0888V82.6373H65.0709V79.004C64.7794 77.9746 60.6741 75.3707 56.253 73.3724C51.8562 75.395 47.8238 78.023 47.4595 79.0888ZM57.1761 48.4116C57.1714 48.1974 57.1242 47.9863 57.0373 47.7904C56.9503 47.5945 56.8253 47.4177 56.6695 47.2702C56.5137 47.1227 56.3301 47.0074 56.1294 46.931C55.9287 46.8546 55.7148 46.8186 55.5 46.8251C55.0629 46.8314 54.6459 47.009 54.3391 47.3195C54.0322 47.63 53.8603 48.0484 53.8603 48.4843C53.8603 48.9179 54.0331 49.3338 54.3406 49.6404C54.6481 49.947 55.0651 50.1193 55.5 50.1193C55.9349 50.1193 56.3519 49.947 56.6594 49.6404C56.9669 49.3338 57.1397 48.9179 57.1397 48.4843L57.1761 48.4116ZM55.5 63.1992C55.2928 63.1878 55.0855 63.2178 54.8901 63.2876C54.6948 63.3573 54.5154 63.4654 54.3626 63.6053C54.2098 63.7453 54.0866 63.9143 54.0004 64.1025C53.9141 64.2906 53.8665 64.4941 53.8603 64.7009V66.6992C53.9092 67.0986 54.1029 67.4663 54.405 67.733C54.707 67.9997 55.0965 68.147 55.5 68.147C55.9035 68.147 56.293 67.9997 56.5951 67.733C56.8971 67.4663 57.0909 67.0986 57.1397 66.6992V64.7009C57.1335 64.4941 57.0859 64.2906 56.9996 64.1025C56.9134 63.9143 56.7902 63.7453 56.6374 63.6053C56.4846 63.4654 56.3052 63.3573 56.1099 63.2876C55.9145 63.2178 55.7072 63.1878 55.5 63.1992Z" fill="#211F1F"/>
</svg>
