<svg width="71" height="71" viewBox="0 0 71 71" fill="none" xmlns="http://www.w3.org/2000/svg">
<g clip-path="url(#clip0_258_46340)">
<path d="M69.2977 44.1659C74.0828 25.5021 62.8319 6.49303 44.1681 1.70792C25.5043 -3.07718 6.49521 8.17373 1.7101 26.8375C-3.07501 45.5013 8.1759 64.5104 26.8397 69.2956C45.5035 74.0807 64.5126 62.8298 69.2977 44.1659Z" fill="#E44A00"/>
<path fill-rule="evenodd" clip-rule="evenodd" d="M27.6514 48.99V54.2762C27.6322 54.5036 27.5283 54.7154 27.3604 54.8697C27.1924 55.0241 26.9726 55.1098 26.7445 55.1098C26.5164 55.1098 26.2966 55.0241 26.1287 54.8697C25.9607 54.7154 25.8568 54.5036 25.8377 54.2762V49.842H18.9894V54.2762C18.9703 54.5019 18.8671 54.7121 18.7004 54.8653C18.5336 55.0186 18.3154 55.1036 18.089 55.1036C17.8625 55.1036 17.6443 55.0186 17.4776 54.8653C17.3108 54.7121 17.2077 54.5019 17.1886 54.2762V48.99C17.1953 48.7611 17.2919 48.5441 17.4573 48.3859C17.6228 48.2277 17.8439 48.1409 18.0728 48.1444H26.7477C26.9795 48.1375 27.2046 48.2225 27.3739 48.3809C27.5432 48.5393 27.643 48.7583 27.6514 48.99ZM38.9597 38.553H30.2977C30.1816 38.5504 30.0661 38.5707 29.9578 38.6128C29.8496 38.6549 29.7507 38.7179 29.6667 38.7982C29.5828 38.8785 29.5156 38.9746 29.4688 39.0809C29.422 39.1873 29.3966 39.3018 29.3941 39.4179V54.2633C29.4025 54.4968 29.5016 54.7177 29.6704 54.8792C29.8391 55.0407 30.0642 55.1301 30.2977 55.1283C30.4139 55.1308 30.5294 55.1105 30.6377 55.0684C30.7459 55.0263 30.8448 54.9633 30.9288 54.883C31.0127 54.8027 31.0799 54.7066 31.1267 54.6003C31.1735 54.494 31.1989 54.3795 31.2014 54.2633V40.2892H38.0432V54.2569C38.0457 54.373 38.0711 54.4875 38.1179 54.5938C38.1646 54.7002 38.2319 54.7962 38.3158 54.8766C38.3997 54.9569 38.4987 55.0199 38.6069 55.062C38.7152 55.104 38.8307 55.1244 38.9468 55.1218C39.1826 55.127 39.411 55.0392 39.5825 54.8774C39.7541 54.7155 39.855 54.4926 39.8634 54.2569V39.4114C39.855 39.1786 39.7557 38.9583 39.5867 38.7978C39.4178 38.6373 39.1927 38.5494 38.9597 38.553ZM50.3456 28.9615H42.4323C42.3212 28.964 42.2118 28.9884 42.1102 29.0332C42.0085 29.0781 41.9167 29.1425 41.84 29.2228C41.7633 29.3031 41.7031 29.3978 41.663 29.5013C41.6229 29.6049 41.6035 29.7154 41.6061 29.8264V54.2569C41.6061 54.476 41.6932 54.6861 41.8481 54.8411C42.003 54.996 42.2132 55.0831 42.4323 55.0831C42.6514 55.0831 42.8616 54.996 43.0165 54.8411C43.1714 54.6861 43.2585 54.476 43.2585 54.2569V30.6913H49.5323V54.2569C49.5323 54.4777 49.62 54.6895 49.7762 54.8456C49.9323 55.0018 50.1441 55.0895 50.3649 55.0895C50.5858 55.0895 50.7975 55.0018 50.9537 54.8456C51.1098 54.6895 51.1976 54.4777 51.1976 54.2569V29.8264C51.2002 29.7132 51.18 29.6007 51.1383 29.4954C51.0965 29.3901 51.0341 29.2943 50.9546 29.2137C50.8751 29.133 50.7803 29.0691 50.6757 29.0258C50.571 28.9825 50.4588 28.9606 50.3456 28.9615ZM51.1717 16.7818H44.246C44.1249 16.7714 44.0028 16.7862 43.8877 16.8255C43.7726 16.8647 43.6669 16.9274 43.5773 17.0096C43.4877 17.0919 43.4161 17.1918 43.3672 17.3031C43.3183 17.4145 43.293 17.5348 43.293 17.6564C43.293 17.778 43.3183 17.8983 43.3672 18.0096C43.4161 18.121 43.4877 18.2209 43.5773 18.3031C43.6669 18.3854 43.7726 18.4481 43.8877 18.4873C44.0028 18.5265 44.1249 18.5414 44.246 18.531H49.1515L48.9256 18.7052L17.5177 43.1163C17.4286 43.1857 17.354 43.272 17.2983 43.3703C17.2425 43.4686 17.2067 43.5769 17.1929 43.689C17.1792 43.8012 17.1876 43.9149 17.2179 44.0238C17.2482 44.1326 17.2996 44.2344 17.3693 44.3233C17.4511 44.4283 17.5559 44.5132 17.6756 44.5713C17.7954 44.6295 17.9268 44.6595 18.0599 44.659C18.256 44.6562 18.4461 44.5906 18.6021 44.4718L19.3121 43.9167L50.2939 19.8154V23.7204C50.2939 23.9584 50.3885 24.1866 50.5567 24.3548C50.725 24.5231 50.9532 24.6176 51.1911 24.6176C51.4291 24.6176 51.6573 24.5231 51.8255 24.3548C51.9938 24.1866 52.0883 23.9584 52.0883 23.7204V17.6273C52.0782 17.3939 51.9762 17.1739 51.8044 17.0155C51.6327 16.8571 51.4052 16.773 51.1717 16.7818Z" fill="white"/>
</g>
<defs>
<clipPath id="clip0_258_46340">
<rect width="71" height="71" fill="white"/>
</clipPath>
</defs>
</svg>
