<svg width="109" height="120" viewBox="0 0 109 120" fill="none" xmlns="http://www.w3.org/2000/svg">
<path fill-rule="evenodd" clip-rule="evenodd" d="M21.7962 82.9138C21.7962 80.6432 21.1571 78.4236 19.9596 76.5356C18.7621 74.6476 17.06 73.1761 15.0686 72.3072C13.0773 71.4383 10.886 71.2109 8.77199 71.6539C6.65797 72.0969 4.71611 73.1903 3.19199 74.7959C1.66786 76.4015 0.629914 78.4471 0.209409 80.6741C-0.211097 82.9011 0.00472247 85.2094 0.829574 87.3072C1.65443 89.405 3.05126 91.198 4.84345 92.4595C6.63563 93.721 8.74267 94.3944 10.8981 94.3944C13.7885 94.3944 16.5604 93.1848 18.6042 91.0318C20.648 88.8788 21.7962 85.9587 21.7962 82.9138ZM4.92925 82.9138C4.92925 81.6702 5.27932 80.4545 5.93518 79.4205C6.59105 78.3865 7.52326 77.5805 8.61392 77.1046C9.70459 76.6287 10.9047 76.5042 12.0626 76.7468C13.2204 76.9894 14.284 77.5883 15.1187 78.4677C15.9535 79.347 16.522 80.4674 16.7523 81.6871C16.9826 82.9069 16.8644 84.1711 16.4126 85.3201C15.9608 86.469 15.1958 87.4511 14.2142 88.142C13.2327 88.8329 12.0786 89.2017 10.8981 89.2017C9.31652 89.1967 7.80106 88.5326 6.68271 87.3545C5.56435 86.1764 4.93397 84.5799 4.92925 82.9138ZM36.333 96.9435C29.6471 96.9435 24.216 102.098 24.216 108.424C24.216 114.75 29.5934 119.905 36.333 119.905C43.0726 119.905 48.5396 114.769 48.5396 108.424C48.5396 102.08 43.0188 96.9435 36.333 96.9435ZM36.333 114.712C35.1783 114.584 34.0836 114.106 33.1814 113.337C32.2791 112.567 31.608 111.538 31.2494 110.375C30.8907 109.212 30.8598 107.964 31.1605 106.783C31.4611 105.601 32.0805 104.537 32.9434 103.719C33.8064 102.901 34.876 102.364 36.0227 102.173C37.1695 101.982 38.3442 102.145 39.4047 102.643C40.4651 103.141 41.3658 103.952 41.9977 104.978C42.6296 106.004 42.9656 107.201 42.9651 108.424C42.9238 109.296 42.7193 110.152 42.3632 110.941C42.0071 111.729 41.5065 112.436 40.8901 113.021C40.2738 113.605 39.5539 114.055 38.7718 114.345C37.9897 114.636 37.1609 114.76 36.333 114.712ZM40.617 75.9462L9.24905 118.866C9.03353 119.19 8.74624 119.454 8.41206 119.635C8.07787 119.816 7.70686 119.909 7.33113 119.905C6.75359 119.922 6.19295 119.698 5.7717 119.281C5.25793 118.804 4.93522 118.139 4.86869 117.42C4.80216 116.702 4.99675 115.984 5.41321 115.41L36.7811 72.4718C36.968 72.1839 37.2106 71.9409 37.4929 71.7587C37.7752 71.5765 38.091 71.4593 38.4193 71.4147C38.7477 71.3701 39.0813 71.3992 39.3983 71.5C39.7153 71.6009 40.0084 71.7712 40.2585 71.9998C40.7925 72.4801 41.1284 73.1603 41.1953 73.8966C41.2622 74.633 41.0548 75.3679 40.617 75.9462ZM106.507 53.5705H84.765V2.70124C84.7581 2.33755 84.6828 1.97892 84.5437 1.646C84.4046 1.31307 84.2043 1.01245 83.9543 0.761454C83.7044 0.510455 83.4098 0.314043 83.0875 0.183537C82.7652 0.05303 82.4215 -0.0089896 82.0763 0.00105035H55.9783C55.2824 -0.0141796 54.6091 0.261218 54.1054 0.767119C53.6017 1.27302 53.3084 1.96833 53.2896 2.70124V25.5112H31.7802C31.089 25.4909 30.4183 25.7594 29.9146 26.2583C29.4108 26.7571 29.1149 27.4457 29.0915 28.1736V58.5744C29.1149 59.3023 29.4108 59.9909 29.9146 60.4897C30.4183 60.9886 31.089 61.2572 31.7802 61.2368C32.1245 61.2519 32.4682 61.1948 32.7913 61.0687C33.1145 60.9427 33.4106 60.7501 33.6625 60.5024C33.9143 60.2546 34.1169 59.9566 34.2584 59.6256C34.3999 59.2946 34.4776 58.9373 34.4868 58.5744V30.8361H53.3075V117.318C53.3168 117.68 53.3937 118.036 53.5339 118.367C53.6741 118.698 53.8747 118.996 54.1244 119.245C54.3741 119.494 54.6679 119.689 54.9891 119.818C55.3103 119.948 55.6525 120.009 55.9962 119.999H106.507C106.844 119.989 107.176 119.91 107.483 119.765C107.791 119.62 108.068 119.413 108.299 119.155C108.531 118.897 108.711 118.594 108.832 118.262C108.952 117.931 109.009 117.578 108.999 117.223V56.3085C109.009 55.5987 108.753 54.9135 108.286 54.4011C107.82 53.8887 107.181 53.5903 106.507 53.5705ZM79.3697 114.58H58.6311V5.3259H79.3697V114.58ZM104.106 114.448H84.765V59.0464H104.106V114.448Z" fill="#E2E2E2"/>
</svg>
