<svg width="24" height="24" viewBox="0 0 24 24" fill="none" xmlns="http://www.w3.org/2000/svg">
<path d="M11.303 0C11.7723 0 12.241 0 12.7102 0C12.88 0.0194219 13.0492 0.0388438 13.219 0.0576392C15.7521 0.340823 18.0115 1.27809 19.9068 2.98722C23.059 5.83033 24.3967 9.39457 23.8986 13.6066C23.6279 15.8934 22.725 17.9565 21.2126 19.6894C18.1055 23.2493 14.1814 24.6326 9.53613 23.7336C6.59258 23.1635 4.22234 21.5959 2.41223 19.1964C1.2531 17.6602 0.517532 15.9404 0.182953 14.0489C0.102755 13.606 0.0595225 13.1562 0 12.7088C0 12.2396 0 11.7709 0 11.3017C0.0194231 11.1331 0.0388462 10.964 0.0576428 10.7955C0.34523 8.21171 1.33205 5.93308 3.07324 4.00091C4.92157 1.94971 7.21287 0.669116 9.93837 0.186701C10.3901 0.106507 10.8481 0.0613983 11.303 0ZM21.0916 18.5009C23.9475 14.7456 24.3315 8.19479 19.6117 3.79229C15.1118 -0.404728 7.99606 -0.213641 3.73362 4.46391C-0.449864 9.05562 0.367786 15.2218 2.92099 18.4834C3.93851 15.733 5.80563 13.799 8.50921 12.6643C6.08006 10.382 6.45975 6.93676 8.35633 5.10358C10.3055 3.21965 13.3687 3.09748 15.3518 4.82415C16.3712 5.71192 17.0027 6.81584 17.1613 8.16159C17.3693 9.92585 16.7741 11.4119 15.4896 12.6675C16.8148 13.1981 17.9564 13.9581 18.9269 14.9668C19.9031 15.9811 20.6173 17.1596 21.0916 18.5003V18.5009ZM12.105 23.2236C12.4383 23.1973 12.8838 23.1785 13.3249 23.1246C16.1231 22.7819 18.4564 21.5439 20.3554 19.4683C20.4726 19.3398 20.4901 19.2333 20.4388 19.0761C19.519 16.2674 17.6813 14.3403 14.9069 13.3172C14.8023 13.2783 14.6438 13.2959 14.5423 13.3485C12.85 14.2262 11.1614 14.23 9.47535 13.341C9.33626 13.2677 9.2241 13.2608 9.08125 13.3147C6.31502 14.3578 4.47922 16.285 3.56634 19.0968C3.51496 19.2553 3.5513 19.3511 3.65656 19.4658C5.89711 21.9148 8.68464 23.1422 12.105 23.2236ZM12.001 13.1856C14.4314 13.19 16.3937 11.2409 16.41 8.80502C16.4263 6.40422 14.432 4.4094 12.011 4.40627C9.59189 4.40314 7.5982 6.3873 7.60196 8.795C7.60572 11.2234 9.56683 13.1812 12.001 13.1856Z" fill="black"/>
</svg>
