<svg width="206" height="40" viewBox="0 0 206 40" fill="none" xmlns="http://www.w3.org/2000/svg">
<g clip-path="url(#clip0_1181_23)">
<path d="M114.864 9.05103H109.959V31.3047H127.428V26.8521H114.864V9.05103Z" fill="#4D5964"/>
<path d="M139.674 9.05103L129.672 31.2955H134.832L136.704 26.9616H147.578L149.476 31.2955H154.636L144.634 9.05103H139.665H139.674ZM142.145 13.6587L145.87 22.5182H138.475L142.145 13.6587Z" fill="#4D5964"/>
<path d="M167.627 9.0603H157.789V31.3048H166.773C168.99 31.3048 170.997 31.1041 172.787 30.7026C174.577 30.3012 176.139 29.4709 177.466 28.2209C179.446 26.2318 180.436 23.5494 180.436 20.1826C180.436 16.8158 179.455 14.0603 177.493 12.1716C175.358 10.0913 172.069 9.0603 167.618 9.0603M173.187 25.1552C171.833 26.2866 169.607 26.8614 166.51 26.8614H162.676V13.4764H167.073C169.944 13.4764 172.06 14.1059 173.432 15.3468C174.677 16.4873 175.294 18.0749 175.294 20.1369C175.294 22.199 174.586 23.9599 173.178 25.1552" fill="#4D5964"/>
<path d="M200.84 31.3048H206L195.998 9.0603H191.029L181.027 31.3048H186.187L188.058 26.9709H198.932L200.831 31.3048H200.84ZM193.5 13.668L197.224 22.5275H189.83L193.5 13.668Z" fill="#4D5964"/>
<path d="M49.4469 0C25.1095 0 4.87837 7.11679 0.772182 16.4963C0.26345 17.646 0 18.8321 0 20.0456C0 21.2591 0.272535 22.4179 0.790351 23.5401C0.799436 23.5766 0.826689 23.604 0.835774 23.6405C0.872112 23.7135 0.899365 23.7865 0.944788 23.8595C5.38711 33.0657 25.4184 40.0091 49.456 40.0091C76.7549 40.0091 98.8938 31.0584 98.8938 20.0091C98.8938 8.95985 76.7549 0 49.4469 0ZM45.7768 4.2427C47.5119 5.87591 46.449 9.43431 43.1241 14.3522C39.4449 19.7993 35.911 22.7828 31.7049 23.8777L40.8439 3.30292H40.8802C43.2149 3.18431 44.7956 3.32117 45.7859 4.2427M66.4985 24.3066C66.3986 24.2336 66.335 24.1241 66.335 24.0055C66.335 23.8321 66.4531 23.677 66.6257 23.6496L70.741 22.792C70.8409 22.7737 70.9227 22.6916 70.959 22.5912L71.6131 20.5657C71.6676 20.3832 71.5404 20.1916 71.3496 20.1825L63.6641 19.7445C63.4007 19.7263 63.1372 19.8084 62.9192 19.9544L59.8396 22.0712C59.2945 22.4453 59.022 23.1022 59.1401 23.75C60.0031 28.4033 58.3043 30.9398 49.4378 32.0347C37.3464 33.531 28.0983 32.2172 25.3548 31.7336L25.264 31.7153C24.8643 31.6423 24.4645 31.8613 24.301 32.2354L23.4289 34.2062C14.3262 31.4051 8.00344 27.1533 6.48633 22.2901V22.2445C6.43182 22.1077 6.39548 21.9708 6.35915 21.8248C6.35915 21.8157 6.35915 21.8066 6.35915 21.7974C6.21379 21.2044 6.14112 20.6113 6.14112 20C6.12295 11.9252 19.25 5.10949 37.201 2.97445C37.2192 2.97445 37.2646 2.97445 37.2646 2.97445C37.2646 2.97445 28.0711 23.7226 26.5086 27.2445C26.3995 27.4818 26.5721 27.7555 26.8356 27.7646L27.3443 27.7828C32.7405 27.9745 39.2632 28.1661 47.412 26.0949C56.0695 23.8869 62.6013 17.5365 65.1086 12.9197C67.6432 8.22993 66.1896 4.63504 65.9171 3.40328C81.8876 5.93978 92.1168 12.3449 92.3439 19.781C92.2894 21.2682 91.9078 22.7281 91.1811 24.1241C88.1832 29.3066 79.6619 33.5949 68.3154 35.9033C72.8122 30.8029 69.3147 26.1953 66.5076 24.3066" fill="#4D5964"/>
</g>
<defs>
<clipPath id="clip0_1181_23">
<rect width="206" height="40" fill="white"/>
</clipPath>
</defs>
</svg>
