<svg width="24" height="24" viewBox="0 0 24 24" fill="none" xmlns="http://www.w3.org/2000/svg">
<path fill-rule="evenodd" clip-rule="evenodd" d="M6.01627 10.4775V3.5143C6.01822 3.37658 6.07452 3.24523 6.17289 3.14888C6.27127 3.05254 6.40373 2.99902 6.54139 3.00001H17.4839C17.6215 2.99902 17.754 3.05254 17.8523 3.14888C17.9507 3.24523 18.007 3.37658 18.009 3.5143V10.4886C18.009 10.6279 17.9536 10.7616 17.8552 10.8601C17.7567 10.9586 17.6231 11.014 17.4839 11.014C17.3446 11.014 17.211 10.9586 17.1125 10.8601C17.0141 10.7616 16.9587 10.6279 16.9587 10.4886V4.01008H7.05541V10.4775C7.05445 10.5455 7.0401 10.6127 7.01319 10.6752C6.98628 10.7376 6.94733 10.7942 6.89856 10.8416C6.8498 10.889 6.79218 10.9264 6.72899 10.9515C6.6658 10.9766 6.59828 10.9891 6.53029 10.9881C6.46242 10.9907 6.39474 10.9792 6.33146 10.9545C6.26818 10.9298 6.21065 10.8924 6.16244 10.8445C6.11424 10.7966 6.07639 10.7393 6.05124 10.6762C6.0261 10.6131 6.01419 10.5454 6.01627 10.4775ZM18.6339 10.1741L15.6422 13.6076C15.5565 13.7137 15.5126 13.8476 15.5187 13.9839C15.5248 14.1202 15.5806 14.2496 15.6755 14.3476C15.7657 14.4352 15.8864 14.4843 16.012 14.4845C16.0824 14.4828 16.1516 14.4664 16.2152 14.4365C16.2789 14.4066 16.3356 14.3637 16.3818 14.3106L19.3735 10.8808C19.4585 10.775 19.503 10.6424 19.4989 10.5067C19.4949 10.371 19.4425 10.2413 19.3514 10.1408C19.3031 10.0938 19.2458 10.0572 19.1828 10.0333C19.1199 10.0094 19.0527 9.99868 18.9854 10.0018C18.9182 10.0049 18.8523 10.0218 18.7918 10.0515C18.7313 10.0811 18.6776 10.1228 18.6339 10.1741ZM4.6406 19.3461C4.73462 19.4349 4.85898 19.4843 4.98822 19.4843C5.11746 19.4843 5.24181 19.4349 5.33583 19.3461L9.15589 15.6204L9.44434 15.8275C10.9568 16.6452 13.3753 16.6341 14.6216 15.7942L14.8583 15.6315L18.6931 19.3572C18.74 19.402 18.7953 19.4369 18.8558 19.4601C18.9163 19.4832 18.9808 19.494 19.0456 19.492C19.1103 19.4899 19.174 19.475 19.2329 19.448C19.2919 19.4211 19.3448 19.3826 19.3888 19.335C19.4327 19.2874 19.4667 19.2315 19.4888 19.1705C19.5109 19.1096 19.5207 19.0449 19.5176 18.9802C19.5144 18.9154 19.4984 18.852 19.4705 18.7935C19.4426 18.735 19.4034 18.6826 19.3551 18.6395L15.2502 14.6399C15.1694 14.5575 15.0612 14.5076 14.9462 14.4994C14.8311 14.4912 14.717 14.5254 14.6253 14.5955L14.078 14.9914C13.1461 15.6204 11.0678 15.6093 9.94357 14.9914L9.38887 14.5844C9.29747 14.5153 9.18415 14.4818 9.06991 14.4899C8.95567 14.4981 8.84826 14.5474 8.7676 14.6288L4.67019 18.6395C4.57502 18.7307 4.5188 18.8551 4.51328 18.9869C4.50777 19.1186 4.55339 19.2473 4.6406 19.3461ZM8.0132 14.4993C8.13395 14.4979 8.2499 14.4517 8.33863 14.3698C8.44074 14.2759 8.50155 14.1453 8.50778 14.0067C8.51402 13.868 8.46517 13.7325 8.37191 13.6298L5.38021 10.1704C5.33891 10.1204 5.28765 10.0796 5.22969 10.0506C5.17174 10.0216 5.10837 10.005 5.04364 10.0018C4.97891 9.99871 4.91423 10.0091 4.85375 10.0324C4.79327 10.0557 4.7383 10.0914 4.69237 10.1371C4.59163 10.2262 4.52978 10.3512 4.5201 10.4854C4.51043 10.6196 4.55368 10.7522 4.6406 10.8549L7.6471 14.3328C7.69296 14.3867 7.75032 14.4297 7.81495 14.4585C7.87959 14.4873 7.94986 14.5012 8.0206 14.4993H8.0132ZM20.4645 8.36856L18.8373 7.12539C18.7857 7.08576 18.7266 7.05686 18.6636 7.0404C18.6006 7.02395 18.535 7.02027 18.4705 7.02957C18.4061 7.03888 18.3442 7.06099 18.2884 7.09461C18.2326 7.12822 18.1841 7.17265 18.1458 7.22529C18.0681 7.33357 18.0347 7.46752 18.0526 7.59962C18.0705 7.73173 18.1382 7.85198 18.2419 7.93567L19.8506 9.18994C19.9148 9.24802 19.9641 9.32068 19.9943 9.40182C20.0246 9.48295 20.0349 9.57017 20.0244 9.65612V19.3535C20.0265 19.515 19.9661 19.6711 19.8558 19.789C19.7455 19.907 19.5939 19.9776 19.4327 19.9862H4.52966C4.37744 19.9703 4.23765 19.8949 4.14069 19.7765C4.04374 19.658 3.99746 19.506 4.01194 19.3535V9.63762C4.00109 9.55692 4.00915 9.47481 4.03546 9.39776C4.06177 9.3207 4.10562 9.25083 4.16356 9.19364L5.79069 7.91347C5.89518 7.83031 5.96351 7.70998 5.98143 7.57761C5.99934 7.44524 5.96545 7.31106 5.88684 7.20309C5.84883 7.15057 5.80068 7.10621 5.74523 7.07264C5.68978 7.03907 5.62817 7.01698 5.56403 7.00766C5.49989 6.99835 5.43454 7.002 5.37184 7.01841C5.30914 7.03482 5.25037 7.06365 5.199 7.1032L3.53119 8.39076C3.35698 8.54702 3.21929 8.73974 3.12789 8.95523C3.0365 9.17072 2.99365 9.4037 3.00238 9.63762V19.3535C2.99093 19.5607 3.02089 19.7681 3.09049 19.9636C3.16008 20.1591 3.26793 20.3387 3.40772 20.492C3.54751 20.6453 3.71644 20.7692 3.90463 20.8564C4.09282 20.9436 4.29651 20.9924 4.50378 21H19.4327C19.8565 20.9836 20.2571 20.8024 20.5493 20.4949C20.8415 20.1873 21.0021 19.7778 20.997 19.3535V9.63762C21.0119 9.39935 20.9716 9.16085 20.8792 8.94072C20.7868 8.7206 20.6449 8.52479 20.4645 8.36856ZM15.0173 6.50011C15.1497 6.50011 15.2767 6.44749 15.3703 6.35382C15.4639 6.26015 15.5165 6.1331 15.5165 6.00063C15.5165 5.86816 15.4639 5.74111 15.3703 5.64744C15.2767 5.55377 15.1497 5.50114 15.0173 5.50114H9.00797C8.94276 5.50113 8.87819 5.5141 8.81803 5.53929C8.75787 5.56449 8.70332 5.6014 8.65755 5.64788C8.61178 5.69436 8.57571 5.74948 8.55143 5.81004C8.52715 5.8706 8.51515 5.93539 8.51613 6.00063C8.51413 6.06614 8.52542 6.13138 8.54933 6.1924C8.57324 6.25342 8.60927 6.30896 8.65525 6.35565C8.70122 6.40234 8.75619 6.43921 8.81681 6.46404C8.87744 6.48887 8.94247 6.50114 9.00797 6.50011H15.0173ZM9.00797 8.00227H15.0173C15.0827 8.00179 15.1473 7.98837 15.2075 7.96277C15.2677 7.93718 15.3222 7.89992 15.3679 7.85314C15.4136 7.80636 15.4496 7.751 15.4739 7.69023C15.4981 7.62947 15.5101 7.5645 15.5091 7.49908C15.5106 7.43371 15.4989 7.3687 15.4748 7.30791C15.4507 7.24713 15.4147 7.1918 15.3688 7.14522C15.323 7.09863 15.2682 7.06174 15.2078 7.03673C15.1474 7.01171 15.0826 6.99909 15.0173 6.9996H9.00797C8.94276 6.99959 8.87819 7.01256 8.81803 7.03775C8.75787 7.06294 8.70332 7.09985 8.65755 7.14633C8.61178 7.19282 8.57571 7.24794 8.55143 7.3085C8.52715 7.36906 8.51515 7.43384 8.51613 7.49908C8.51414 7.56477 8.52542 7.63018 8.54929 7.6914C8.57316 7.75262 8.60913 7.80839 8.65505 7.85537C8.70098 7.90235 8.7559 7.93958 8.81654 7.96482C8.87718 7.99006 8.94229 8.0028 9.00797 8.00227ZM9.00797 10.0002H12.5063C12.6387 10.0002 12.7657 9.94759 12.8593 9.85392C12.9529 9.76025 13.0055 9.6332 13.0055 9.50073C13.0055 9.36826 12.9529 9.24121 12.8593 9.14754C12.7657 9.05387 12.6387 9.00124 12.5063 9.00124H9.01537C8.94967 9.00075 8.88453 9.01333 8.82374 9.03826C8.76295 9.06319 8.70772 9.09996 8.66126 9.14644C8.6148 9.19292 8.57805 9.24818 8.55313 9.309C8.52822 9.36982 8.51564 9.435 8.51613 9.50073C8.51514 9.5666 8.52737 9.632 8.5521 9.69305C8.57684 9.7541 8.61358 9.80956 8.66013 9.85614C8.70669 9.90272 8.76213 9.93948 8.82315 9.96423C8.88417 9.98897 8.94953 10.0012 9.01537 10.0002H9.00797Z" fill="#211F1F"/>
</svg>
