<svg width="24" height="24" viewBox="0 0 24 24" fill="none" xmlns="http://www.w3.org/2000/svg">
<path d="M8.48026 9.25516C9.1162 10.5797 9.98312 11.8211 11.081 12.919C12.1789 14.0169 13.4203 14.8838 14.7448 15.5197C14.8588 15.5744 14.9157 15.6018 14.9878 15.6228C15.244 15.6975 15.5585 15.6438 15.7755 15.4885C15.8365 15.4448 15.8888 15.3926 15.9932 15.2881C16.3126 14.9687 16.4724 14.809 16.633 14.7045C17.2387 14.3107 18.0195 14.3107 18.6252 14.7045C18.7858 14.809 18.9455 14.9687 19.265 15.2881L19.443 15.4662C19.9286 15.9518 20.1714 16.1945 20.3033 16.4553C20.5656 16.9739 20.5656 17.5863 20.3033 18.1049C20.1714 18.3657 19.9286 18.6084 19.443 19.094L19.299 19.2381C18.8151 19.722 18.5731 19.9639 18.2441 20.1487C17.8791 20.3538 17.3121 20.5012 16.8935 20.5C16.5162 20.4989 16.2583 20.4257 15.7425 20.2793C12.9709 19.4926 10.3555 18.0083 8.1736 15.8264C5.99168 13.6445 4.50738 11.0291 3.72071 8.25746C3.57432 7.74172 3.50113 7.48385 3.50001 7.10653C3.49876 6.68785 3.6462 6.1209 3.85126 5.75587C4.03605 5.42691 4.27801 5.18494 4.76193 4.70102L4.90597 4.55699C5.39155 4.07141 5.63434 3.82861 5.8951 3.69672C6.41369 3.43443 7.02611 3.43443 7.5447 3.69672C7.80546 3.82861 8.04825 4.0714 8.53383 4.55699L8.71189 4.73504C9.03133 5.05448 9.19104 5.2142 9.29547 5.37481C9.68927 5.9805 9.68927 6.76134 9.29547 7.36703C9.19105 7.52764 9.03133 7.68736 8.71189 8.0068C8.60744 8.11125 8.55521 8.16347 8.5115 8.22452C8.35616 8.44146 8.30252 8.75601 8.3772 9.01218C8.39821 9.08426 8.42556 9.14123 8.48026 9.25516Z" stroke="#111111" stroke-linecap="round" stroke-linejoin="round"/>
</svg>
