<svg width="24" height="24" viewBox="0 0 24 24" fill="none" xmlns="http://www.w3.org/2000/svg">
<g clip-path="url(#clip0_2317_41236)">
<path d="M22.6464 23.3536C22.8417 23.5488 23.1583 23.5488 23.3536 23.3536C23.5488 23.1583 23.5488 22.8417 23.3536 22.6464L22.6464 23.3536ZM18.6176 10.0588C18.6176 14.7857 14.7857 18.6176 10.0588 18.6176V19.6176C15.338 19.6176 19.6176 15.338 19.6176 10.0588H18.6176ZM10.0588 18.6176C5.33192 18.6176 1.5 14.7857 1.5 10.0588H0.5C0.5 15.338 4.77963 19.6176 10.0588 19.6176V18.6176ZM1.5 10.0588C1.5 5.33192 5.33192 1.5 10.0588 1.5V0.5C4.77963 0.5 0.5 4.77963 0.5 10.0588H1.5ZM10.0588 1.5C14.7857 1.5 18.6176 5.33192 18.6176 10.0588H19.6176C19.6176 4.77963 15.338 0.5 10.0588 0.5V1.5ZM16.1759 16.883L22.6464 23.3536L23.3536 22.6464L16.883 16.1759L16.1759 16.883Z" fill="#BCBCBC"/>
</g>
<defs>
<clipPath id="clip0_2317_41236">
<rect width="24" height="24" fill="white"/>
</clipPath>
</defs>
</svg>
