<svg width="24" height="24" viewBox="0 0 24 24" fill="none" xmlns="http://www.w3.org/2000/svg">
<path fill-rule="evenodd" clip-rule="evenodd" d="M21.9708 13.2382L20.8332 16.0237C20.7895 16.1278 20.7091 16.2112 20.608 16.2574C20.5069 16.3035 20.3925 16.3091 20.2876 16.2729L18.9004 15.8218C18.5168 16.3113 18.0793 16.7538 17.5964 17.1405L18.0681 18.5317C18.1033 18.638 18.0969 18.7542 18.0504 18.8559C18.0039 18.9576 17.9207 19.037 17.8184 19.0774L15.0439 20.2415C14.9884 20.2856 14.9199 20.3089 14.8497 20.3077C14.7686 20.3076 14.689 20.2853 14.6191 20.2431C14.5492 20.201 14.4915 20.1405 14.452 20.068L13.7862 18.762C13.0613 18.8524 12.3275 18.8375 11.6067 18.7178C11.5502 18.7085 11.4961 18.6879 11.4474 18.6571C11.3987 18.6264 11.3564 18.5862 11.3229 18.5387C11.2894 18.4913 11.2654 18.4375 11.2522 18.3806C11.239 18.3236 11.2369 18.2645 11.246 18.2067C11.2551 18.149 11.2753 18.0936 11.3053 18.0437C11.3353 17.9939 11.3746 17.9506 11.421 17.9164C11.4674 17.8821 11.5199 17.8575 11.5756 17.844C11.6312 17.8305 11.6889 17.8283 11.7454 17.8377C12.481 17.9654 13.2324 17.9654 13.968 17.8377C14.0606 17.8218 14.1557 17.8357 14.2402 17.8776C14.3247 17.9194 14.3944 17.987 14.4397 18.0711L15.0562 19.2919L17.0785 18.4497L16.6223 17.1405C16.593 17.0539 16.5916 16.9601 16.6183 16.8727C16.6449 16.7853 16.6981 16.7089 16.7702 16.6547C17.3726 16.2195 17.9015 15.6867 18.3363 15.0773C18.3925 15.0002 18.4707 14.9427 18.5601 14.9128C18.6495 14.8828 18.7457 14.8819 18.8356 14.9101L20.1612 15.3297L20.9843 13.3107L19.7512 12.7019C19.6679 12.6611 19.5996 12.594 19.5564 12.5105C19.5131 12.4271 19.4971 12.3316 19.5108 12.2381C19.6342 11.5075 19.6342 10.7605 19.5108 10.0299C19.4947 9.93606 19.5085 9.83946 19.5501 9.75427C19.5918 9.66909 19.659 9.59983 19.742 9.55667L20.9751 8.92574L20.1335 6.91622L18.8079 7.36103C18.7192 7.39319 18.6226 7.39522 18.5327 7.3668C18.4427 7.33839 18.3641 7.28105 18.3085 7.2033C17.8672 6.59324 17.3321 6.06053 16.724 5.62597C16.6528 5.57349 16.5988 5.50021 16.5691 5.41576C16.5394 5.3313 16.5354 5.23962 16.5575 5.15277L16.9829 3.84674L14.9668 3.0076L14.3657 4.23792C14.3245 4.32398 14.2572 4.39412 14.1739 4.43789C14.0906 4.48166 13.9957 4.49672 13.9033 4.48083C13.1676 4.35464 12.4164 4.35464 11.6807 4.48083C11.5909 4.49572 11.4989 4.48226 11.4168 4.44224C11.3348 4.40222 11.2666 4.33755 11.2214 4.25685L10.6048 3.03599L8.58255 3.89091L9.02646 5.18747C9.05772 5.27666 9.05924 5.37392 9.0308 5.46409C9.00236 5.55425 8.94555 5.63225 8.86924 5.68591C8.27317 6.12013 7.75221 6.65325 7.32789 7.26324C7.27135 7.34003 7.19316 7.39723 7.10386 7.42713C7.01456 7.45702 6.91845 7.45818 6.82849 7.43043L5.5245 7.00455L4.70142 9.02353L5.9345 9.62292C6.01779 9.66372 6.08609 9.73079 6.12937 9.81426C6.17265 9.89773 6.18862 9.9932 6.17495 10.0867C6.05148 10.8173 6.05148 11.5643 6.17495 12.2949C6.18505 12.3528 6.18366 12.4122 6.17087 12.4696C6.15808 12.5269 6.13415 12.581 6.1005 12.6287C6.06684 12.6764 6.02416 12.7166 5.97499 12.7471C5.92582 12.7776 5.87116 12.7976 5.81428 12.806C5.75751 12.8173 5.6991 12.8168 5.64251 12.8046C5.58593 12.7924 5.53232 12.7687 5.48487 12.7348C5.43742 12.701 5.39711 12.6577 5.36631 12.6076C5.33552 12.5575 5.31489 12.5016 5.30563 12.4432C5.17621 11.7229 5.15748 10.9864 5.25014 10.2602L3.9369 9.6103C3.83734 9.56217 3.7597 9.47667 3.7201 9.37153C3.68049 9.26639 3.68196 9.14968 3.7242 9.04562L4.86172 6.26005C4.90547 6.15599 4.98589 6.07258 5.08698 6.02641C5.18808 5.98023 5.30244 5.97468 5.40736 6.01084L6.79458 6.46195C7.17606 5.97549 7.6116 5.53613 8.0924 5.15277L7.61766 3.76472C7.58171 3.65755 7.588 3.54026 7.6352 3.43777C7.6824 3.33527 7.76679 3.25565 7.87045 3.21581L10.6449 2.05174C10.7465 2.00673 10.861 2.00252 10.9655 2.03993C11.07 2.07733 11.157 2.15363 11.209 2.25364L11.8749 3.55967C12.4892 3.4834 13.1102 3.4834 13.7245 3.55967L14.3719 2.24417C14.424 2.14403 14.5103 2.06708 14.6144 2.02808C14.7186 1.98907 14.8331 1.99076 14.936 2.03281L17.7105 3.16218C17.8124 3.20327 17.895 3.28271 17.9414 3.38421C17.9879 3.4857 17.9946 3.60154 17.9602 3.70794L17.507 5.09598C17.9955 5.47772 18.4393 5.91597 18.8295 6.40201L20.2167 5.92881C20.322 5.89285 20.4367 5.89887 20.5378 5.94565C20.639 5.99243 20.7192 6.07655 20.7623 6.18119L21.943 8.93836C21.9867 9.04118 21.9899 9.15728 21.952 9.26247C21.9141 9.36766 21.838 9.45384 21.7396 9.50304L20.4356 10.1718C20.5142 10.7886 20.5142 11.4132 20.4356 12.0299L21.7488 12.6798C21.8486 12.7262 21.9271 12.8099 21.9684 12.9138C22.0097 13.0176 22.0105 13.1337 21.9708 13.2382ZM5.75262 16.3487L5.82661 16.4244C5.86635 16.4671 5.91416 16.5012 5.96716 16.5244C6.02015 16.5477 6.07721 16.5597 6.13488 16.5597C6.19254 16.5597 6.2496 16.5477 6.3026 16.5244C6.35559 16.5012 6.40341 16.4671 6.44315 16.4244L10.2965 12.4243C10.3683 12.3536 10.4139 12.2597 10.4257 12.1585C10.4375 12.0573 10.4147 11.955 10.3613 11.869C10.0283 11.3107 10.1948 10.3453 10.722 9.79643L10.9994 9.51251C11.4865 9.01092 12.3373 8.71753 12.9353 8.91628L11.5974 10.298C11.5169 10.3823 11.4717 10.4956 11.4717 10.6135C11.4717 10.7314 11.5169 10.8447 11.5974 10.9289L12.9076 12.2508C12.9443 12.3061 12.9925 12.3525 13.0487 12.3866C13.105 12.4207 13.1679 12.4417 13.233 12.448C13.2981 12.4544 13.3637 12.4459 13.4253 12.4233C13.4868 12.4006 13.5427 12.3643 13.5889 12.317C13.6351 12.2697 13.6706 12.2125 13.6927 12.1496C13.7148 12.0866 13.7231 12.0194 13.7169 11.9528C13.7107 11.8862 13.6902 11.8218 13.6569 11.7643C13.6236 11.7067 13.5783 11.6574 13.5241 11.6198L12.5531 10.6103L13.9619 9.14341C14.0438 9.05974 14.0904 8.94642 14.0914 8.82795C14.0827 8.71002 14.0348 8.59868 13.9557 8.51248C12.9939 7.56608 11.2953 7.9478 10.3829 8.89104L10.1054 9.17496C9.75595 9.54352 9.51196 10.0031 9.39999 10.5037C9.28802 11.0043 9.31237 11.5267 9.47037 12.0142L6.07939 15.5127C5.58272 15.3113 5.03916 15.2637 4.51628 15.3759C3.9934 15.488 3.51428 15.755 3.13848 16.1436L2.86104 16.4275C1.95472 17.3739 1.62795 19.2162 2.55277 20.191C2.63552 20.2728 2.74603 20.3184 2.86104 20.3184C2.97604 20.3184 3.08656 20.2728 3.16931 20.191C3.2499 20.1067 3.29502 19.9935 3.29502 19.8756C3.29502 19.7576 3.2499 19.6444 3.16931 19.5601C2.60826 18.9828 2.86104 17.6673 3.47758 17.0648L3.75502 16.7808C4.2945 16.2256 5.19773 16.0363 5.75262 16.3487ZM12.362 14.5789C12.8406 14.736 13.3521 14.7561 13.8411 14.6371C14.3302 14.5181 14.7781 14.2645 15.1364 13.9038L15.4138 13.6199C16.2801 12.7271 16.5113 10.7807 15.5402 9.78381C15.4568 9.70351 15.3465 9.65881 15.232 9.65881C15.1174 9.65881 15.0072 9.70351 14.9237 9.78381C14.8424 9.86771 14.7967 9.9811 14.7967 10.0993C14.7967 10.2174 14.8424 10.3308 14.9237 10.4147C15.4786 10.9889 15.4138 12.3612 14.7942 12.9921L14.5168 13.2729C13.9835 13.8281 13.0586 14.0047 12.5068 13.6577C12.4217 13.605 12.3217 13.5829 12.2229 13.5949C12.1241 13.6069 12.032 13.6523 11.9612 13.724L8.03383 17.7209C7.96895 17.7869 7.92623 17.8722 7.91183 17.9647C7.89742 18.0571 7.91208 18.1518 7.95368 18.2351C8.0786 18.5673 8.10754 18.9291 8.03702 19.2776C7.96651 19.6261 7.79954 19.9464 7.55601 20.2005L7.27856 20.4844C7.01091 20.7404 6.68624 20.9256 6.33274 21.024C5.97925 21.1224 5.60762 21.131 5.25014 21.0491L6.5233 19.7399C6.56416 19.6987 6.59664 19.6496 6.61886 19.5954C6.64109 19.5413 6.65261 19.4832 6.65277 19.4244C6.65296 19.3657 6.64159 19.3074 6.61935 19.2533C6.5971 19.1991 6.56444 19.15 6.5233 19.109L5.14841 17.7209C5.06603 17.6385 4.95538 17.5923 4.84014 17.5923C4.7249 17.5923 4.61424 17.6385 4.53187 17.7209C4.49123 17.7623 4.45898 17.8114 4.43697 17.8656C4.41497 17.9197 4.40364 17.9778 4.40364 18.0364C4.40364 18.095 4.41497 18.1531 4.43697 18.2072C4.45898 18.2614 4.49123 18.3105 4.53187 18.3519L5.59232 19.4244L4.23593 20.8156C4.15591 20.9004 4.11068 21.0133 4.10954 21.1311C4.11819 21.249 4.16606 21.3604 4.24518 21.4466C4.6591 21.8208 5.19752 22.0184 5.74954 21.9986C6.558 21.9878 7.33112 21.6578 7.90744 21.0775L8.1818 20.7967C8.51596 20.4513 8.75518 20.0218 8.87534 19.5516C8.99549 19.0813 8.99233 18.587 8.86616 18.1184L12.362 14.5789Z" fill="#211F1F"/>
</svg>
