<svg width="24" height="24" viewBox="0 0 24 24" fill="none" xmlns="http://www.w3.org/2000/svg">
<path d="M2 10.9853C2.16875 10.5647 2.49844 10.3862 2.93281 10.3366C3.4625 10.2761 3.98906 10.1894 4.51823 10.1221C4.66875 10.1028 4.73542 10.0454 4.79427 9.89145C4.98854 9.38314 5.21198 8.8858 5.43906 8.39106C5.48958 8.28147 5.49635 8.21519 5.4224 8.1176C5.03906 7.60825 4.66458 7.09159 4.28437 6.58015C4.0526 6.26859 4.0651 5.81769 4.34792 5.52022C4.73802 5.11003 5.13958 4.70975 5.55 4.31991C5.83125 4.05271 6.35313 4.08089 6.72292 4.36375C7.17812 4.71132 7.63125 5.06149 8.07917 5.41794C8.17552 5.49465 8.23958 5.49048 8.35104 5.4409C8.85938 5.21284 9.37083 4.98895 9.89219 4.79429C10.0479 4.73584 10.1021 4.66748 10.1214 4.51718C10.1937 3.95616 10.2714 3.39567 10.3552 2.8357C10.4396 2.27625 10.7625 2.0007 11.3203 2.0007C11.8021 2.0007 12.2839 1.99913 12.7656 2.0007C13.2333 2.00226 13.5714 2.29347 13.6375 2.75481C13.7208 3.34087 13.8052 3.92694 13.8771 4.51405C13.8974 4.67844 13.9667 4.7395 14.1234 4.79899C14.6255 4.99104 15.1167 5.21179 15.6057 5.43568C15.713 5.48474 15.7781 5.50039 15.8781 5.42263C16.3302 5.07141 16.7901 4.7301 17.2469 4.38462C17.7276 4.0214 18.1953 4.05323 18.6214 4.4796C18.9297 4.78803 19.2385 5.09646 19.5464 5.40541C19.9339 5.79421 19.9703 6.27746 19.6396 6.72106C19.2896 7.19075 18.9359 7.6573 18.5786 8.12177C18.512 8.20892 18.4911 8.27207 18.5552 8.37592C18.8583 8.86544 19.0859 9.38993 19.2234 9.94886C19.263 10.1096 19.3755 10.1028 19.4854 10.1185C20.026 10.1952 20.5677 10.2688 21.1089 10.3434C21.5339 10.4024 21.8547 10.5981 22 11.0234V12.9768C21.8599 13.4016 21.5589 13.6072 21.1208 13.6578C20.5854 13.7194 20.0526 13.8086 19.5177 13.8749C19.3479 13.8958 19.2609 13.9469 19.1979 14.1312C19.0214 14.6457 18.8083 15.1478 18.5943 15.6483C18.5458 15.761 18.5474 15.8273 18.6203 15.9222C18.9568 16.3606 19.301 16.7948 19.6125 17.2504C19.9214 17.7024 20.013 18.1924 19.5219 18.6266C19.1911 18.9194 18.8932 19.2487 18.5797 19.5613C18.175 19.9657 17.7333 19.9908 17.2755 19.6359C16.8229 19.2852 16.3682 18.9376 15.9203 18.5822C15.825 18.5066 15.7599 18.5087 15.6479 18.5588C15.1396 18.7873 14.6276 19.0086 14.1078 19.2074C13.9656 19.2617 13.899 19.315 13.8807 19.4642C13.8182 19.9741 13.7354 20.4808 13.6776 20.9912C13.6266 21.4447 13.475 21.82 13.0156 22H10.9844C10.563 21.8325 10.3854 21.5011 10.3349 21.0685C10.2729 20.5393 10.1943 20.0122 10.1172 19.4846C10.1026 19.3854 10.1172 19.281 9.97031 19.2247C9.42604 19.0159 8.88854 18.7894 8.35469 18.5561C8.24375 18.5076 8.1776 18.505 8.08177 18.5812C7.62396 18.9455 7.16146 19.304 6.69583 19.6583C6.26302 19.9882 5.81927 19.9548 5.4349 19.5722C5.10781 19.2466 4.78125 18.9199 4.45521 18.5932C4.03073 18.1679 4.00625 17.7389 4.37865 17.2582C4.72917 16.8058 5.07656 16.3512 5.43177 15.9029C5.5 15.8168 5.49062 15.7605 5.44792 15.6644C5.22187 15.1556 4.99219 14.6468 4.80156 14.1244C4.73802 13.9501 4.65833 13.8968 4.49687 13.8765C3.975 13.8097 3.45521 13.7236 2.93229 13.6641C2.49844 13.6145 2.16927 13.436 2.00052 13.0154V10.9843L2 10.9853ZM19.35 6.08019C19.2927 5.98991 19.2542 5.90067 19.1911 5.83544C18.8776 5.51344 18.5578 5.19823 18.2401 4.88093C17.987 4.62834 17.8724 4.61894 17.5875 4.83187C17.0771 5.21388 16.5635 5.59224 16.0589 5.98208C15.8906 6.11203 15.7542 6.12142 15.5667 6.00974C14.9896 5.6653 14.3812 5.38767 13.7151 5.2572C13.526 5.22014 13.4219 5.1142 13.3943 4.91902C13.2979 4.23641 13.1943 3.55484 13.0953 2.87275C13.0594 2.62434 12.9776 2.54814 12.725 2.54762C12.2693 2.54658 11.8135 2.54762 11.3578 2.54762C11.0411 2.54762 10.9474 2.62173 10.8974 2.94425C10.7937 3.61277 10.6922 4.28129 10.6026 4.9519C10.5792 5.12829 10.5042 5.22223 10.3328 5.25511C9.6599 5.38401 9.04583 5.66374 8.46354 6.01287C8.26458 6.13186 8.11094 6.11412 7.93229 5.97634C7.42812 5.58598 6.9151 5.2071 6.40417 4.82561C6.15 4.63617 5.99323 4.64817 5.77448 4.86683C5.46146 5.17996 5.14792 5.49256 4.83542 5.80621C4.6401 6.00244 4.63021 6.147 4.7974 6.36984C5.125 6.80717 5.45312 7.2445 5.78177 7.68131C6.2375 8.28668 6.14531 8.13586 5.87396 8.71671C5.63854 9.22032 5.4625 9.75263 5.27917 10.2787C5.2125 10.4697 5.14062 10.5923 4.91458 10.6116C4.57812 10.6398 4.24479 10.704 3.91042 10.7536C3.56927 10.8042 3.2276 10.8501 2.88802 10.907C2.6125 10.9529 2.54688 11.0364 2.54688 11.3089C2.54688 11.7906 2.54583 12.2722 2.54688 12.7539C2.54792 12.9945 2.61615 13.0634 2.85 13.0963C3.51979 13.1902 4.18802 13.2936 4.85833 13.3828C5.09479 13.4141 5.22344 13.5169 5.27865 13.7606C5.42708 14.4182 5.68906 15.0351 6.03281 15.6133C6.13802 15.7907 6.11875 15.9207 5.99948 16.0715C5.73281 16.4081 5.47448 16.7515 5.21302 17.0923C5.07031 17.2781 4.9224 17.4602 4.7875 17.6512C4.63281 17.8699 4.65 18.0118 4.8375 18.1992C5.17812 18.54 5.51771 18.8813 5.8599 19.2205C6.02917 19.388 6.15052 19.4026 6.34219 19.2607C6.90156 18.8463 7.46198 18.433 8.01042 18.0035C8.1526 17.8918 8.26562 17.8704 8.4099 17.9675C8.98385 18.3526 9.61146 18.6104 10.2885 18.7472C10.4792 18.7858 10.5786 18.8938 10.6062 19.0879C10.7016 19.7643 10.8052 20.4391 10.9031 21.1149C10.9417 21.3826 11.0167 21.4552 11.2786 21.4557C11.7604 21.4567 12.2422 21.4567 12.724 21.4557C12.9771 21.4552 13.0599 21.379 13.0953 21.1316C13.1917 20.462 13.288 19.793 13.3891 19.1239C13.4323 18.838 13.4755 18.7978 13.762 18.732C13.8125 18.7205 13.8635 18.7101 13.9141 18.6976C14.487 18.5546 15.0141 18.3041 15.5198 18.0061C15.6672 17.9189 15.8229 17.8537 15.9755 17.9659C16.5354 18.3792 17.0932 18.7967 17.6432 19.2231C17.8349 19.3713 17.9776 19.3838 18.149 19.2127C18.4995 18.8635 18.8443 18.5087 19.201 18.1658C19.325 18.0468 19.3479 17.9278 19.2771 17.7832C19.2401 17.7081 19.199 17.6329 19.149 17.5661C18.7724 17.0594 18.3969 16.5521 18.013 16.0511C17.8823 15.8805 17.8802 15.7213 17.9927 15.5496C18.3573 14.9943 18.6083 14.3916 18.737 13.7398C18.7771 13.5362 18.8839 13.4225 19.0974 13.3932C19.7802 13.2993 20.462 13.1954 21.1437 13.0963C21.3672 13.0639 21.4521 12.9731 21.4526 12.7503C21.4542 12.2618 21.4536 11.7739 21.4526 11.2854C21.4526 11.0197 21.3807 10.9436 21.1167 10.9055C20.4344 10.8068 19.7531 10.7035 19.0708 10.6054C18.8937 10.5798 18.7875 10.4869 18.7505 10.3142C18.6062 9.63938 18.3307 9.01731 17.987 8.42342C17.8969 8.26737 17.9068 8.14265 18.0161 7.99652C18.4099 7.47047 18.7937 6.93711 19.1771 6.40324C19.2432 6.31086 19.2859 6.20231 19.35 6.08124V6.08019Z" fill="black"/>
<path d="M11.9911 16.298C9.59531 16.2943 7.69583 14.3827 7.70312 11.9826C7.71042 9.60181 9.6276 7.69957 12.0151 7.70427C14.3958 7.70897 16.3021 9.6279 16.2964 12.0134C16.2906 14.3978 14.3771 16.3022 11.9906 16.2985L11.9911 16.298ZM12.0057 8.2512C9.93646 8.24911 8.2526 9.92798 8.25 11.9951C8.24792 14.0644 9.92708 15.7485 11.9943 15.7511C14.0635 15.7532 15.7474 14.0748 15.7495 12.0066C15.7521 9.93685 14.0734 8.25328 12.0052 8.2512H12.0057Z" fill="black"/>
</svg>
