<svg width="72" height="72" viewBox="0 0 72 72" fill="none" xmlns="http://www.w3.org/2000/svg">
<g clip-path="url(#clip0_258_46350)">
<path d="M36 72C55.8822 72 72 55.8822 72 36C72 16.1177 55.8822 0 36 0C16.1177 0 0 16.1177 0 36C0 55.8822 16.1177 72 36 72Z" fill="#E44A00"/>
<path fill-rule="evenodd" clip-rule="evenodd" d="M54.9445 38.3525L52.7832 43.6451C52.7 43.8428 52.5472 44.0013 52.3552 44.089C52.1631 44.1767 51.9458 44.1873 51.7465 44.1186L49.1107 43.2615C48.382 44.1915 47.5506 45.0323 46.6332 45.7669L47.5293 48.4102C47.5962 48.6123 47.5842 48.833 47.4958 49.0262C47.4073 49.2195 47.2494 49.3703 47.0549 49.4471L41.7834 51.6588C41.678 51.7426 41.5479 51.787 41.4144 51.7847C41.2603 51.7844 41.109 51.742 40.9762 51.6619C40.8434 51.5819 40.7339 51.467 40.6589 51.3292L39.3937 48.8477C38.0164 49.0195 36.6223 48.9912 35.2527 48.7638C35.1454 48.7461 35.0426 48.7069 34.9501 48.6486C34.8576 48.5902 34.7772 48.5137 34.7136 48.4236C34.6499 48.3334 34.6043 48.2313 34.5792 48.1231C34.5541 48.0148 34.5501 47.9026 34.5674 47.7928C34.5847 47.683 34.623 47.5778 34.6801 47.4831C34.7371 47.3884 34.8118 47.3062 34.8999 47.2411C34.988 47.176 35.0878 47.1292 35.1936 47.1036C35.2993 47.0779 35.409 47.0738 35.5163 47.0915C36.914 47.3343 38.3416 47.3343 39.7393 47.0915C39.9152 47.0614 40.0958 47.0879 40.2564 47.1673C40.4169 47.2468 40.5493 47.3753 40.6354 47.5351L41.8069 49.8547L45.6492 48.2543L44.7823 45.7669C44.7268 45.6025 44.7241 45.4242 44.7747 45.2581C44.8253 45.092 44.9265 44.9469 45.0634 44.8438C46.2079 44.017 47.2129 43.0048 48.0389 41.8469C48.1458 41.7003 48.2943 41.5911 48.4641 41.5343C48.634 41.4774 48.8169 41.4756 48.9877 41.5292L51.5063 42.3264L53.0702 38.4904L50.7273 37.3335C50.5691 37.256 50.4393 37.1286 50.3571 36.97C50.2748 36.8114 50.2445 36.63 50.2705 36.4524C50.5051 35.0642 50.5051 33.645 50.2705 32.2568C50.24 32.0785 50.2662 31.895 50.3453 31.7331C50.4244 31.5713 50.5521 31.4397 50.7097 31.3577L53.0526 30.1589L51.4536 26.3408L48.935 27.186C48.7664 27.2471 48.583 27.2509 48.4121 27.1969C48.2412 27.1429 48.0918 27.034 47.9862 26.8863C47.1477 25.7271 46.131 24.715 44.9756 23.8893C44.8404 23.7896 44.7378 23.6504 44.6814 23.4899C44.6249 23.3295 44.6172 23.1553 44.6593 22.9903L45.4676 20.5088L41.637 18.9144L40.4949 21.252C40.4166 21.4156 40.2887 21.5488 40.1304 21.632C39.9721 21.7152 39.7918 21.7438 39.6163 21.7136C38.2184 21.4738 36.7912 21.4738 35.3933 21.7136C35.2228 21.7419 35.0479 21.7163 34.892 21.6403C34.7361 21.5642 34.6065 21.4413 34.5206 21.288L33.3491 18.9684L29.5068 20.5927L30.3503 23.0562C30.4097 23.2256 30.4126 23.4104 30.3585 23.5818C30.3045 23.7531 30.1966 23.9013 30.0516 24.0032C28.919 24.8282 27.9292 25.8412 27.123 27.0001C27.0156 27.1461 26.867 27.2547 26.6973 27.3115C26.5277 27.3683 26.3451 27.3705 26.1741 27.3178L23.6966 26.5086L22.1327 30.3447L24.4756 31.4835C24.6338 31.5611 24.7636 31.6885 24.8458 31.8471C24.928 32.0057 24.9584 32.1871 24.9324 32.3646C24.6978 33.7529 24.6978 35.1721 24.9324 36.5603C24.9516 36.6704 24.949 36.7832 24.9247 36.8921C24.9004 37.0011 24.8549 37.1039 24.7909 37.1945C24.727 37.2851 24.6459 37.3616 24.5525 37.4195C24.4591 37.4774 24.3552 37.5154 24.2471 37.5313C24.1393 37.5529 24.0283 37.552 23.9208 37.5288C23.8133 37.5056 23.7114 37.4605 23.6213 37.3962C23.5311 37.3319 23.4545 37.2497 23.396 37.1545C23.3375 37.0593 23.2983 36.953 23.2807 36.8421C23.0348 35.4735 22.9992 34.0741 23.1753 32.6943L20.6801 31.4596C20.4909 31.3681 20.3434 31.2057 20.2682 31.0059C20.1929 30.8061 20.1957 30.5844 20.276 30.3867L22.4373 25.0941C22.5204 24.8964 22.6732 24.7379 22.8653 24.6502C23.0573 24.5624 23.2746 24.5519 23.474 24.6206L26.1097 25.4777C26.8345 24.5534 27.662 23.7187 28.5756 22.9903L27.6736 20.353C27.6052 20.1494 27.6172 19.9265 27.7069 19.7318C27.7966 19.537 27.9569 19.3857 28.1538 19.31L33.4253 17.0983C33.6184 17.0128 33.8358 17.0048 34.0344 17.0759C34.233 17.1469 34.3982 17.2919 34.4971 17.4819L35.7623 19.9634C36.9294 19.8185 38.1094 19.8185 39.2766 19.9634L40.5066 17.4639C40.6056 17.2737 40.7697 17.1275 40.9675 17.0533C41.1652 16.9792 41.3828 16.9824 41.5784 17.0623L46.8499 19.2081C47.0435 19.2862 47.2005 19.4372 47.2887 19.63C47.377 19.8228 47.3897 20.0429 47.3243 20.2451L46.4633 22.8824C47.3915 23.6077 48.2347 24.4403 48.976 25.3638L51.6117 24.4647C51.8118 24.3964 52.0297 24.4078 52.2219 24.4967C52.4141 24.5856 52.5664 24.7454 52.6485 24.9443L54.8917 30.1829C54.9747 30.3782 54.9808 30.5988 54.9088 30.7987C54.8368 30.9986 54.6922 31.1623 54.5052 31.2558L52.0276 32.5265C52.177 33.6983 52.177 34.885 52.0276 36.0569L54.5227 37.2916C54.7122 37.3797 54.8616 37.5388 54.94 37.7361C55.0184 37.9334 55.02 38.154 54.9445 38.3525ZM24.13 44.2624L24.2706 44.4063C24.3461 44.4875 24.4369 44.5522 24.5376 44.5964C24.6383 44.6406 24.7467 44.6634 24.8563 44.6634C24.9658 44.6634 25.0743 44.6406 25.1749 44.5964C25.2756 44.5522 25.3665 44.4875 25.442 44.4063L32.7634 36.8061C32.8997 36.6718 32.9864 36.4934 33.0088 36.3011C33.0313 36.1088 32.988 35.9145 32.8864 35.7512C32.2539 34.6903 32.5701 32.8561 33.5717 31.8132L34.0989 31.2738C35.0243 30.3207 36.6409 29.7633 37.7771 30.1409L35.2351 32.7662C35.082 32.9264 34.9963 33.1416 34.9963 33.3656C34.9963 33.5897 35.082 33.8048 35.2351 33.965L37.7244 36.4764C37.7942 36.5816 37.8857 36.6698 37.9926 36.7346C38.0995 36.7994 38.219 36.8392 38.3427 36.8513C38.4664 36.8633 38.5911 36.8472 38.708 36.8042C38.8249 36.7612 38.9311 36.6922 39.0189 36.6023C39.1067 36.5124 39.1741 36.4038 39.2162 36.2842C39.2582 36.1646 39.2739 36.0369 39.2622 35.9104C39.2504 35.7838 39.2115 35.6615 39.1482 35.5521C39.0848 35.4427 38.9987 35.349 38.8959 35.2777L37.0509 33.3596L39.7276 30.5725C39.8833 30.4135 39.9717 30.1982 39.9736 29.9731C39.9571 29.749 39.8662 29.5375 39.7159 29.3737C37.8884 27.5756 34.6611 28.3008 32.9274 30.093L32.4003 30.6324C31.7363 31.3327 31.2727 32.2059 31.06 33.157C30.8472 34.1082 30.8935 35.1008 31.1937 36.0269L24.7508 42.6741C23.8072 42.2914 22.7744 42.201 21.7809 42.4141C20.7875 42.6273 19.8771 43.1345 19.1631 43.8728L18.636 44.4123C16.914 46.2104 16.2931 49.7108 18.0503 51.5629C18.2075 51.7182 18.4175 51.805 18.636 51.805C18.8545 51.805 19.0645 51.7182 19.2217 51.5629C19.3748 51.4028 19.4605 51.1876 19.4605 50.9636C19.4605 50.7395 19.3748 50.5243 19.2217 50.3642C18.1557 49.2673 18.636 46.7679 19.8074 45.623L20.3345 45.0836C21.3595 44.0287 23.0757 43.669 24.13 44.2624ZM36.6877 40.8999C37.5971 41.1984 38.569 41.2366 39.4982 41.0105C40.4273 40.7845 41.2783 40.3026 41.9592 39.6172L42.4863 39.0778C44.1322 37.3815 44.5714 33.6833 42.7264 31.7892C42.5679 31.6367 42.3584 31.5517 42.1407 31.5517C41.9231 31.5517 41.7136 31.6367 41.555 31.7892C41.4005 31.9486 41.3138 32.1641 41.3138 32.3886C41.3138 32.6132 41.4005 32.8286 41.555 32.988C42.6093 34.0789 42.4863 36.6862 41.309 37.885L40.7819 38.4184C39.7686 39.4734 38.0114 39.809 36.963 39.1497C36.8012 39.0495 36.6113 39.0076 36.4235 39.0304C36.2357 39.0532 36.0607 39.1394 35.9263 39.2756L28.4643 46.8698C28.341 46.9951 28.2598 47.1573 28.2325 47.3329C28.2051 47.5084 28.2329 47.6884 28.312 47.8468C28.5493 48.4778 28.6043 49.1653 28.4703 49.8274C28.3364 50.4896 28.0191 51.0982 27.5564 51.5809L27.0293 52.1204C26.5207 52.6067 25.9039 52.9587 25.2322 53.1456C24.5606 53.3326 23.8545 53.349 23.1753 53.1933L25.5943 50.7058C25.6719 50.6275 25.7336 50.5342 25.7758 50.4313C25.8181 50.3284 25.84 50.218 25.8403 50.1064C25.8406 49.9948 25.819 49.8841 25.7768 49.7812C25.7345 49.6782 25.6724 49.585 25.5943 49.5071L22.982 46.8698C22.8255 46.7131 22.6152 46.6253 22.3963 46.6253C22.1773 46.6253 21.9671 46.7131 21.8105 46.8698C21.7333 46.9483 21.6721 47.0417 21.6302 47.1446C21.5884 47.2474 21.5669 47.3577 21.5669 47.4691C21.5669 47.5806 21.5884 47.6909 21.6302 47.7937C21.6721 47.8966 21.7333 47.99 21.8105 48.0685L23.8254 50.1064L21.2483 52.7497C21.0962 52.9107 21.0103 53.1252 21.0081 53.3491C21.0246 53.5732 21.1155 53.7847 21.2658 53.9485C22.0523 54.6596 23.0753 55.035 24.1241 54.9974C25.6602 54.9769 27.1291 54.3498 28.2241 53.2472L28.7454 52.7138C29.3803 52.0575 29.8348 51.2415 30.0631 50.348C30.2914 49.4546 30.2854 48.5153 30.0457 47.625L36.6877 40.8999Z" fill="white"/>
</g>
<defs>
<clipPath id="clip0_258_46350">
<rect width="72" height="72" fill="white"/>
</clipPath>
</defs>
</svg>
