<svg width="111" height="110" viewBox="0 0 111 110" fill="none" xmlns="http://www.w3.org/2000/svg">
<path d="M68.7728 88.072C69.0651 88.4486 69.1984 88.9271 69.1437 89.403C69.089 89.8788 68.8508 90.3135 68.4809 90.6121C68.109 90.9081 67.6367 91.0432 67.1669 90.9878C66.6971 90.9324 66.268 90.6911 65.9732 90.3164L40.7635 57.8324L15.7794 89.9401C15.6423 90.1475 15.4644 90.324 15.2569 90.4585C15.0494 90.5931 14.8167 90.6828 14.5733 90.7221C14.33 90.7614 14.0813 90.7495 13.8427 90.687C13.6042 90.6245 13.3809 90.5128 13.1869 90.359C12.9929 90.2051 12.8323 90.0123 12.7152 89.7927C12.5981 89.5731 12.527 89.3314 12.5063 89.0827C12.4856 88.834 12.5158 88.5836 12.595 88.3473C12.6742 88.1109 12.8007 87.8937 12.9666 87.7091L39.0917 54.1096V20.8327C39.0902 20.3796 39.2574 19.9426 39.5599 19.6088C39.8623 19.275 40.2779 19.0689 40.7237 19.0318C45.3483 18.8035 49.9511 19.8091 54.0716 21.9482C57.7203 23.9104 64.3943 21.7735 66.6631 20.7789C66.9353 20.6656 67.2302 20.6199 67.5234 20.6456C67.8165 20.6714 68.0993 20.7678 68.3482 20.9268C68.5961 21.0928 68.7998 21.3183 68.941 21.5833C69.0822 21.8482 69.1566 22.1444 69.1576 22.4455V39.5678C69.1594 39.9113 69.0642 40.2482 68.8832 40.5387C68.7021 40.8293 68.4429 41.0613 68.1359 41.2074C67.7511 41.3956 58.7685 45.6157 52.413 42.296C48.8173 40.4145 46.9067 39.6081 45.0226 39.4199C44.7878 39.4063 44.558 39.3455 44.3465 39.2413C44.135 39.137 43.9461 38.9913 43.7906 38.8125C43.6351 38.6338 43.5162 38.4256 43.4407 38.1999C43.3652 37.9743 43.3347 37.7357 43.3508 37.498C43.3849 37.0178 43.6047 36.5705 43.9624 36.2534C44.3202 35.9363 44.787 35.7751 45.2615 35.8046C47.9947 35.9928 50.5688 37.283 54.045 39.0839C57.7867 41.0327 63.3328 39.2586 65.5884 38.3716V25.0259C62.3111 26.0742 56.5262 27.3644 52.3998 25.1603C49.3791 23.5957 46.0522 22.7325 42.6609 22.6336V54.4725L68.7728 88.072ZM98.1221 86.8355L75.5661 57.6443C75.4077 57.4378 75.2072 57.2685 74.9781 57.1479C74.7491 57.0272 74.4971 56.9582 74.2393 56.9454C73.9688 56.9438 73.7016 57.0047 73.4579 57.1234C73.2141 57.2422 73.0004 57.4158 72.8329 57.6308L60.9711 72.8581C60.7459 73.2403 60.6672 73.6931 60.7501 74.1302C60.833 74.5673 61.0716 74.9583 61.4206 75.2288C61.7696 75.4993 62.2045 75.6305 62.6427 75.5973C63.0809 75.5641 63.4918 75.3689 63.7972 75.0488L74.2128 61.609L95.296 89.0665C95.4411 89.255 95.6216 89.4125 95.827 89.5301C96.0324 89.6477 96.2588 89.723 96.493 89.7518C96.7273 89.7805 96.9648 89.762 97.192 89.6975C97.4192 89.6329 97.6316 89.5236 97.8169 89.3756C98.1888 89.079 98.4297 88.6453 98.4869 88.1693C98.5441 87.6934 98.4129 87.2138 98.1221 86.8355ZM50.6218 75.5326L46.0708 78.4894L41.5198 75.5326C41.2318 75.3488 40.8983 75.2513 40.5579 75.2513C40.2174 75.2513 39.884 75.3488 39.5959 75.5326L35.0582 78.476L30.5337 75.5326C30.1346 75.288 29.6569 75.2108 29.2024 75.3174C28.7479 75.424 28.3524 75.7061 28.1 76.1035C27.8476 76.501 27.7583 76.9825 27.851 77.4457C27.9438 77.9088 28.2113 78.317 28.5966 78.5835L34.0896 82.1585C34.3798 82.3431 34.7155 82.441 35.0582 82.4407C35.4006 82.4388 35.7358 82.3412 36.0268 82.1585L40.5645 79.2017L45.1155 82.1585C45.4035 82.3423 45.737 82.4398 46.0775 82.4398C46.4179 82.4398 46.7514 82.3423 47.0394 82.1585L52.5457 78.5835C52.9103 78.31 53.1589 77.9065 53.2412 77.4546C53.3236 77.0027 53.2335 76.5359 52.9893 76.1486C52.7451 75.7613 52.3649 75.4824 51.9254 75.368C51.486 75.2537 51.0201 75.3125 50.6218 75.5326Z" fill="#211F1F"/>
</svg>
