<svg width="111" height="110" viewBox="0 0 111 110" fill="none" xmlns="http://www.w3.org/2000/svg">
<path fill-rule="evenodd" clip-rule="evenodd" d="M91.4294 57.0797C91.1535 62.0128 89.8499 66.8336 87.6023 71.2328C85.6551 75.0986 83.0241 78.5795 79.8367 81.5068C73.2965 87.6151 64.6811 91.0085 55.7347 91C54.9296 91 54.1246 91 53.2576 90.9256C47.24 90.598 41.4049 88.7427 36.302 85.5346C33.566 83.7975 31.0892 81.6821 28.9451 79.2512C25.6595 75.6853 23.1347 71.4868 21.5249 66.912C19.915 62.3372 19.2538 57.482 19.5817 52.643C19.8485 47.7085 21.1526 42.8858 23.4088 38.4899C26.1194 33.0817 30.1636 28.4544 35.1589 25.0455C40.1542 21.6365 45.9358 19.5585 51.9571 19.0078C52.4022 18.965 52.8461 19.101 53.191 19.3857C53.5359 19.6704 53.7537 20.0806 53.7964 20.5259C53.8391 20.9713 53.7032 21.4154 53.4187 21.7606C53.1342 22.1057 52.7243 22.3236 52.2792 22.3663C45.2572 22.9917 38.6366 25.9142 33.441 30.6822C30.563 33.3444 28.1846 36.5008 26.4184 40.0019C24.3674 43.9539 23.177 48.2961 22.9258 52.7421C22.6386 57.1443 23.2467 61.559 24.7135 65.7192C26.1803 69.8795 28.4751 73.6988 31.4593 76.9461C33.3772 79.1467 35.6101 81.0512 38.0855 82.5974C44.1592 86.3702 51.2982 88.0548 58.4165 87.3949C65.5349 86.7349 72.243 83.7666 77.5206 78.9414C80.4278 76.2872 82.821 73.1194 84.5803 69.5969C86.6592 65.6559 87.8513 61.3075 88.073 56.8567C88.4802 49.9822 86.7167 43.1537 83.0321 37.3373C79.909 32.3487 75.4683 28.3213 70.2008 25.7001C66.8386 23.9131 63.1709 22.7739 59.3884 22.3415C58.9466 22.2988 58.5398 22.0822 58.2576 21.7394C57.9754 21.3966 57.8409 20.9556 57.8836 20.5135C57.9263 20.0715 58.1427 19.6645 58.4853 19.3821C58.8279 19.0997 59.2686 18.965 59.7104 19.0078C63.9044 19.5023 67.9722 20.7625 71.7119 22.7257C77.5356 25.6142 82.4478 30.0577 85.9055 35.5651C89.971 41.9731 91.9047 49.5045 91.4294 57.0797ZM36.5125 31.8967C41.405 27.2641 47.7622 24.489 54.4838 24.0518C55.1148 24.0115 55.7477 24.0115 56.3787 24.0518C57.1342 24.0518 58.187 24.1262 58.187 24.1262C64.9108 24.5389 71.276 27.3024 76.1706 31.9339C79.5878 35.1556 82.2048 39.1323 83.8124 43.5463L83.9239 43.8066C84.506 45.331 85.3729 47.5989 84.2459 49.7925C84.1451 49.9978 84.0028 50.1798 83.828 50.327C83.6531 50.4742 83.4496 50.5834 83.2303 50.6477C81.3477 51.1682 77.7931 50.3502 74.5605 49.4083L74.0898 49.2968C73.6238 49.1524 73.1719 48.9657 72.7398 48.7391C70.2628 47.5865 63.7233 44.575 56.3911 44.575C50.6538 44.7803 45.0275 46.2173 39.8938 48.7887C39.2002 49.0861 38.7295 49.3092 38.5561 49.3464L38.0855 49.4579C35.7502 50.1782 33.3398 50.6273 30.902 50.7964C30.4006 50.799 29.901 50.7365 29.4157 50.6105C29.1974 50.5442 28.9948 50.4342 28.8202 50.2872C28.6456 50.1402 28.5027 49.9593 28.4001 49.7553C27.3102 47.5617 28.1524 45.2566 28.7221 43.7694L28.8336 43.5092C30.4436 39.0872 33.0747 35.1084 36.5125 31.8967ZM31.9423 44.7361L31.8309 44.9964C31.5053 45.7536 31.2965 46.5559 31.2116 47.3758C33.269 47.1813 35.2995 46.7658 37.2681 46.1365L37.7759 45.9878C37.8873 45.9878 38.1722 45.8019 38.5809 45.616C41.219 44.3767 48.2539 41.1545 56.2673 41.1545C62.4879 41.338 68.5961 42.8597 74.1765 45.616C74.61 45.8019 74.8949 45.9506 75.0435 45.9878L75.5142 46.0993C77.4749 46.7099 79.4911 47.125 81.5335 47.3387C81.4698 46.4832 81.2604 45.6449 80.9142 44.86L80.7656 44.6617C79.342 40.7573 77.0214 37.2423 73.9908 34.4002C69.6415 30.2749 63.9822 27.8097 58.0012 27.4352C58.0012 27.4352 57.0599 27.3608 56.4035 27.3608C55.8217 27.343 55.2398 27.3929 54.6695 27.5095C48.6868 27.8768 43.0251 30.343 38.68 34.4745C35.6629 37.3206 33.3551 40.8353 31.9423 44.7361ZM32.5864 59.9302L34.7662 59.7443C36.9213 59.5584 39.7204 59.3105 41.4667 59.199C41.9102 59.1743 42.3257 58.9744 42.6218 58.6432C42.9179 58.312 43.0705 57.8767 43.0458 57.4329C43.0212 56.9892 42.8214 56.5735 42.4904 56.2771C42.1594 55.9808 41.7244 55.8282 41.2809 55.8528C39.547 55.9148 36.6612 56.2122 34.4318 56.3981L32.2891 56.584C31.5605 56.6059 30.8445 56.7805 30.1874 57.0964C29.5304 57.4124 28.9468 57.8626 28.4744 58.4182C27.2359 60.4135 28.2886 63.0161 29.0689 64.8999C31.9995 72.0865 37.6353 77.8328 44.7612 80.8995C47.0837 81.8268 49.5285 82.4112 52.0191 82.6346C52.5793 82.6599 53.137 82.5449 53.6416 82.2999C53.936 82.104 54.1802 81.8415 54.3545 81.5336C54.5287 81.2257 54.6282 80.8811 54.6448 80.5277C54.9049 78.2845 53.2081 72.249 51.0158 70.0059C50.8547 69.8693 50.6804 69.7489 50.4957 69.6465C47.2112 68.3044 44.5202 65.8229 42.9158 62.6567C42.7183 62.2527 42.3688 61.9437 41.9439 61.7973C41.519 61.6509 41.0534 61.6792 40.6493 61.8759C40.2589 62.0705 39.9609 62.4111 39.8195 62.8239C39.6781 63.2367 39.7048 63.6886 39.8938 64.0819C41.783 67.8634 44.9327 70.8661 48.7989 72.5713C50.0727 74.6094 50.9157 76.887 51.2759 79.2636C49.5381 78.9492 47.8308 78.4848 46.1732 77.8756C39.8022 75.1023 34.7758 69.9347 32.1777 63.487C31.4345 61.6528 31.1373 60.5498 31.2859 60.3268C31.6686 60.0645 32.1225 59.9261 32.5864 59.9302ZM58.9797 82.238C59.4815 82.5034 60.0488 82.6195 60.6145 82.5726C63.1132 82.3425 65.5659 81.754 67.8971 80.8252C75.0858 77.713 80.7563 71.8874 83.6761 64.6148C84.3821 62.8674 85.4596 60.24 84.2335 58.2447C83.7552 57.6967 83.1676 57.2548 82.5085 56.9474C81.8494 56.6401 81.1334 56.4741 80.4064 56.4601C78.4867 56.3114 74.8454 56.0139 72.393 55.9024C72.1714 55.8873 71.949 55.9165 71.7387 55.9884C71.5285 56.0603 71.3347 56.1734 71.1687 56.3211C71.0026 56.4688 70.8677 56.6481 70.7717 56.8486C70.6757 57.0491 70.6206 57.2667 70.6096 57.4887C70.5859 57.9371 70.7407 58.3767 71.0401 58.7111C71.3396 59.0456 71.7592 59.2477 72.2073 59.2733C74.6843 59.3849 78.2266 59.6823 80.1092 59.831C80.5286 59.8762 80.9431 59.9592 81.3477 60.0789C81.5706 60.4507 81.3477 61.5289 80.4931 63.5242C77.8879 69.9141 72.8866 75.0298 66.5595 77.7764C64.8944 78.3949 63.1788 78.8676 61.432 79.1892C61.7909 76.8122 62.634 74.5344 63.909 72.4969C67.8061 70.7598 70.9768 67.7186 72.8761 63.896C73.06 63.4992 73.0813 63.0461 72.9355 62.6338C72.7896 62.2215 72.4882 61.8827 72.0958 61.69C71.8968 61.5905 71.68 61.5314 71.458 61.5162C71.236 61.501 71.0132 61.53 70.8025 61.6014C70.5917 61.6729 70.3972 61.7854 70.2302 61.9325C70.0631 62.0796 69.9269 62.2583 69.8293 62.4584C68.2207 65.6727 65.5074 68.1985 62.1875 69.5721C61.9918 69.6614 61.8152 69.7876 61.6673 69.9439C59.4379 72.1995 57.7287 78.2598 58.026 80.5153C58.0141 80.8704 58.0959 81.2224 58.2634 81.5357C58.4308 81.8491 58.6779 82.1127 58.9797 82.2999V82.238ZM56.3416 59.1866C51.598 59.1866 47.9814 57.0178 47.9814 54.1673C47.9814 51.3169 51.5484 49.1357 56.3416 49.1357C61.1347 49.1357 64.6646 51.3045 64.6646 54.1673C64.6646 57.0302 61.0976 59.1866 56.3416 59.1866ZM56.3416 55.8156C59.3884 55.8156 61.0109 54.6383 61.0109 54.1673C61.0109 53.6964 59.3884 52.5066 56.3416 52.5066C53.2948 52.5066 51.6723 53.684 51.6723 54.1673C51.6723 54.6507 53.2948 55.8528 56.3416 55.8156Z" fill="#211F1F"/>
</svg>
