<svg width="17" height="17" viewBox="0 0 17 17" fill="none" xmlns="http://www.w3.org/2000/svg">
<path d="M4.98026 5.75516C5.6162 7.07969 6.48312 8.32109 7.58101 9.41899C8.67891 10.5169 9.92031 11.3838 11.2448 12.0197C11.3588 12.0744 11.4157 12.1018 11.4878 12.1228C11.744 12.1975 12.0585 12.1438 12.2755 11.9885C12.3365 11.9448 12.3888 11.8926 12.4932 11.7881C12.8126 11.4687 12.9724 11.309 13.133 11.2045C13.7387 10.8107 14.5195 10.8107 15.1252 11.2045C15.2858 11.309 15.4455 11.4687 15.765 11.7881L15.943 11.9662C16.4286 12.4518 16.6714 12.6945 16.8033 12.9553C17.0656 13.4739 17.0656 14.0863 16.8033 14.6049C16.6714 14.8657 16.4286 15.1084 15.943 15.594L15.799 15.7381C15.3151 16.222 15.0731 16.4639 14.7441 16.6487C14.3791 16.8538 13.8121 17.0012 13.3935 17C13.0162 16.9989 12.7583 16.9257 12.2425 16.7793C9.4709 15.9926 6.85553 14.5083 4.6736 12.3264C2.49168 10.1445 1.00738 7.52911 0.220705 4.75746C0.0743222 4.24172 0.00113002 3.98385 7.83836e-06 3.60653C-0.00123819 3.18785 0.1462 2.6209 0.351255 2.25587C0.536051 1.92691 0.778012 1.68494 1.26193 1.20102L1.40597 1.05699C1.89155 0.571406 2.13434 0.328613 2.3951 0.196724C2.91369 -0.0655747 3.52611 -0.0655747 4.0447 0.196724C4.30546 0.328613 4.54825 0.571405 5.03383 1.05699L5.21189 1.23504C5.53133 1.55448 5.69104 1.7142 5.79547 1.87481C6.18927 2.4805 6.18927 3.26134 5.79547 3.86703C5.69105 4.02764 5.53133 4.18736 5.21189 4.5068C5.10744 4.61125 5.05521 4.66347 5.0115 4.72452C4.85616 4.94146 4.80252 5.25601 4.8772 5.51218C4.89821 5.58426 4.92556 5.64123 4.98026 5.75516Z" fill="#E44A00"/>
</svg>
