<svg width="72" height="72" viewBox="0 0 72 72" fill="none" xmlns="http://www.w3.org/2000/svg">
<g clip-path="url(#clip0_258_46364)">
<path d="M36 72C55.8822 72 72 55.8823 72 36C72 16.1178 55.8822 0 36 0C16.1177 0 0 16.1178 0 36C0 55.8823 16.1177 72 36 72Z" fill="#E44A00"/>
<path fill-rule="evenodd" clip-rule="evenodd" d="M54.9627 37.085C54.8171 39.6869 54.1291 42.2296 52.9429 44.5499C51.9152 46.5889 50.5266 48.4249 48.8444 49.9689C45.3926 53.1907 40.8456 54.9805 36.1239 54.976C35.699 54.976 35.2741 54.976 34.8165 54.9368C31.6406 54.764 28.5609 53.7854 25.8677 52.0933C24.4237 51.1771 23.1165 50.0613 21.9849 48.7792C20.2509 46.8984 18.9183 44.6839 18.0687 42.2709C17.219 39.858 16.8701 37.2971 17.0431 34.7448C17.1839 32.1421 17.8722 29.5984 19.063 27.2799C20.4936 24.4273 22.628 21.9867 25.2644 20.1887C27.9008 18.3906 30.9522 17.2946 34.1302 17.0041C34.3651 16.9816 34.5993 17.0533 34.7813 17.2034C34.9634 17.3536 35.0783 17.5699 35.1009 17.8048C35.1234 18.0398 35.0517 18.274 34.9015 18.456C34.7514 18.6381 34.535 18.753 34.3001 18.7756C30.5941 19.1054 27.0999 20.6469 24.3577 23.1617C22.8388 24.5659 21.5836 26.2307 20.6514 28.0773C19.5689 30.1618 18.9407 32.4521 18.808 34.7971C18.6565 37.119 18.9774 39.4475 19.7516 41.6418C20.5257 43.8361 21.7369 45.8506 23.3119 47.5633C24.3241 48.7241 25.5026 49.7285 26.809 50.5441C30.0146 52.5341 33.7824 53.4226 37.5393 53.0745C41.2962 52.7264 44.8366 51.1608 47.622 48.6158C49.1563 47.2158 50.4194 45.545 51.3479 43.6871C52.4451 41.6084 53.0743 39.3149 53.1913 36.9673C53.4062 33.3414 52.4755 29.7397 50.5308 26.6719C48.8825 24.0407 46.5388 21.9165 43.7588 20.5339C41.9843 19.5914 40.0485 18.9905 38.0522 18.7625C37.819 18.7399 37.6044 18.6257 37.4554 18.4449C37.3065 18.2641 37.2354 18.0315 37.258 17.7983C37.2805 17.5651 37.3948 17.3505 37.5756 17.2015C37.7564 17.0526 37.989 16.9816 38.2222 17.0041C40.4357 17.2649 42.5826 17.9296 44.5563 18.9651C47.6299 20.4886 50.2225 22.8323 52.0474 25.7372C54.193 29.117 55.2136 33.0894 54.9627 37.085ZM25.9788 23.8023C28.561 21.3588 31.9162 19.8951 35.4636 19.6646C35.7967 19.6433 36.1307 19.6433 36.4638 19.6646C36.8625 19.6646 37.4181 19.7038 37.4181 19.7038C40.9668 19.9215 44.3262 21.3791 46.9095 23.8219C48.713 25.5212 50.0942 27.6187 50.9426 29.9468L51.0015 30.0841C51.3087 30.8881 51.7663 32.0844 51.1714 33.2414C51.1183 33.3496 51.0431 33.4456 50.9509 33.5233C50.8586 33.6009 50.7512 33.6585 50.6354 33.6924C49.6418 33.9669 47.7658 33.5355 46.0597 33.0387L45.8113 32.9799C45.5653 32.9037 45.3269 32.8053 45.0988 32.6857C43.7915 32.0778 40.3401 30.4894 36.4703 30.4894C33.4423 30.5977 30.4729 31.3556 27.7634 32.7119C27.3973 32.8688 27.1489 32.9864 27.0574 33.006L26.809 33.0649C25.5765 33.4448 24.3044 33.6817 23.0177 33.7708C22.7531 33.7722 22.4894 33.7393 22.2333 33.6728C22.1181 33.6378 22.0111 33.5798 21.919 33.5023C21.8268 33.4248 21.7514 33.3293 21.6973 33.2217C21.122 32.0647 21.5665 30.8489 21.8672 30.0645L21.9261 29.9272C22.7758 27.5949 24.1644 25.4963 25.9788 23.8023ZM23.5668 30.5744L23.508 30.7116C23.3361 31.111 23.2259 31.5342 23.1811 31.9667C24.267 31.8641 25.3386 31.6449 26.3776 31.313L26.6456 31.2346C26.7044 31.2346 26.8548 31.1365 27.0705 31.0385C28.4628 30.3848 32.1757 28.6853 36.4049 28.6853C39.688 28.7821 42.9118 29.5847 45.8571 31.0385C46.0858 31.1365 46.2362 31.215 46.3146 31.2346L46.563 31.2934C47.5979 31.6154 48.662 31.8344 49.7399 31.9471C49.7063 31.4959 49.5957 31.0537 49.4131 30.6397L49.3346 30.5351C48.5833 28.4758 47.3585 26.6218 45.759 25.1227C43.4636 22.9469 40.4767 21.6466 37.3201 21.4491C37.3201 21.4491 36.8233 21.4099 36.4768 21.4099C36.1698 21.4005 35.8627 21.4268 35.5617 21.4883C32.4042 21.682 29.416 22.9828 27.1228 25.1619C25.5304 26.6631 24.3124 28.5169 23.5668 30.5744ZM23.9067 38.5884L25.0572 38.4904C26.1946 38.3923 27.6719 38.2616 28.5935 38.2027C28.8276 38.1897 29.0469 38.0843 29.2032 37.9096C29.3595 37.7349 29.44 37.5053 29.427 37.2713C29.414 37.0372 29.3085 36.8179 29.1338 36.6616C28.9592 36.5053 28.7295 36.4248 28.4955 36.4378C27.5803 36.4705 26.0573 36.6274 24.8807 36.7254L23.7498 36.8235C23.3652 36.835 22.9874 36.9271 22.6406 37.0938C22.2938 37.2604 21.9858 37.4979 21.7365 37.7909C21.0828 38.8433 21.6384 40.2161 22.0503 41.2096C23.5969 45.0002 26.5714 48.031 30.3323 49.6486C31.5581 50.1376 32.8484 50.4459 34.1628 50.5637C34.4585 50.5771 34.7529 50.5164 35.0192 50.3872C35.1745 50.2839 35.3034 50.1454 35.3954 49.983C35.4874 49.8206 35.5399 49.6389 35.5486 49.4525C35.6859 48.2693 34.7904 45.0859 33.6334 43.9028C33.5483 43.8307 33.4563 43.7672 33.3588 43.7132C31.6254 43.0054 30.2051 41.6965 29.3583 40.0265C29.2541 39.8134 29.0696 39.6504 28.8454 39.5732C28.6211 39.496 28.3754 39.5109 28.1621 39.6147C27.9561 39.7173 27.7988 39.897 27.7242 40.1147C27.6496 40.3324 27.6636 40.5708 27.7634 40.7782C28.7605 42.7728 30.4228 44.3565 32.4633 45.2559C33.1356 46.3309 33.5805 47.5322 33.7706 48.7857C32.8535 48.6199 31.9524 48.3749 31.0775 48.0536C27.7151 46.5909 25.0622 43.8652 23.691 40.4645C23.2988 39.497 23.1419 38.9152 23.2203 38.7976C23.4223 38.6593 23.6619 38.5863 23.9067 38.5884ZM37.8365 50.3545C38.1014 50.4945 38.4008 50.5558 38.6993 50.531C40.0181 50.4097 41.3125 50.0993 42.5429 49.6093C46.3369 47.9678 49.3297 44.8952 50.8707 41.0593C51.2433 40.1376 51.812 38.7518 51.1649 37.6994C50.9125 37.4103 50.6024 37.1773 50.2545 37.0152C49.9067 36.8531 49.5287 36.7655 49.145 36.7581C48.1318 36.6797 46.21 36.5228 44.9158 36.464C44.7988 36.456 44.6814 36.4714 44.5704 36.5094C44.4595 36.5473 44.3572 36.6069 44.2696 36.6848C44.1819 36.7627 44.1107 36.8573 44.0601 36.963C44.0094 37.0688 43.9803 37.1836 43.9745 37.3007C43.962 37.5372 44.0437 37.769 44.2017 37.9454C44.3598 38.1218 44.5813 38.2285 44.8177 38.242C46.1251 38.3008 47.9946 38.4577 48.9882 38.5361C49.2095 38.5599 49.4283 38.6037 49.6418 38.6668C49.7595 38.8629 49.6418 39.4316 49.1908 40.4841C47.8158 43.8544 45.1763 46.5526 41.837 48.0013C40.9582 48.3275 40.0527 48.5768 39.1308 48.7465C39.3202 47.4928 39.7652 46.2913 40.4381 45.2167C42.4949 44.3004 44.1683 42.6964 45.1707 40.6802C45.2678 40.4709 45.279 40.2319 45.2021 40.0144C45.1251 39.7969 44.966 39.6182 44.7589 39.5166C44.6538 39.4641 44.5394 39.433 44.4223 39.425C44.3051 39.4169 44.1875 39.4322 44.0763 39.4699C43.9651 39.5076 43.8624 39.5669 43.7743 39.6445C43.6861 39.7221 43.6142 39.8164 43.5627 39.9219C42.7137 41.6173 41.2817 42.9495 39.5295 43.674C39.4262 43.7211 39.333 43.7877 39.255 43.8701C38.0783 45.0598 37.1763 48.2562 37.3332 49.4459C37.3269 49.6332 37.3701 49.8189 37.4584 49.9841C37.5468 50.1494 37.6772 50.2884 37.8365 50.3872V50.3545ZM36.4442 38.1962C33.9406 38.1962 32.0319 37.0523 32.0319 35.5488C32.0319 34.0454 33.9144 32.8949 36.4442 32.8949C38.9739 32.8949 40.8368 34.0388 40.8368 35.5488C40.8368 37.0588 38.9543 38.1962 36.4442 38.1962ZM36.4442 36.4182C38.0522 36.4182 38.9085 35.7972 38.9085 35.5488C38.9085 35.3004 38.0522 34.6729 36.4442 34.6729C34.8361 34.6729 33.9798 35.2939 33.9798 35.5488C33.9798 35.8038 34.8361 36.4378 36.4442 36.4182Z" fill="white"/>
</g>
<defs>
<clipPath id="clip0_258_46364">
<rect width="72" height="72" fill="white"/>
</clipPath>
</defs>
</svg>
