<svg width="262" height="43" viewBox="0 0 262 43" fill="none" xmlns="http://www.w3.org/2000/svg">
<path d="M171.631 0H172.857V43H171.631V0Z" fill="#00234D"/>
<path d="M89.6716 0.0425743L69.7258 2.66089V8.62129L89.6716 6.83317V0.0425743Z" fill="#E40038"/>
<path d="M28.7355 21.7342C28.7355 25.353 29.7919 26.6089 33.236 26.6089C36.68 26.6089 37.7153 25.3743 37.7153 21.7342C37.7153 18.0941 36.68 16.8594 33.236 16.8594C29.7919 16.8594 28.7355 18.0941 28.7355 21.7342ZM22.7137 21.6703C22.7137 15.05 26.369 12.0272 33.236 12.0272C40.1029 12.0272 43.7794 15.05 43.7794 21.6703C43.7794 28.2906 40.124 31.4411 33.236 31.4411C26.3479 31.4411 22.7137 28.3119 22.7137 21.6703Z" fill="#00234D"/>
<path d="M85.8895 13.6876L69.7258 2.6396V8.6L74.7756 12.0272L75.7687 12.6446C74.5221 12.5807 73.2755 12.9 72.219 13.5599C69.7258 15.0713 68.4369 17.7322 68.4369 21.6703C68.4369 28.2906 72.0923 31.4411 78.9592 31.4411C85.8261 31.4411 89.5237 28.2906 89.5237 21.6703C89.5237 17.8386 88.256 15.2203 85.9106 13.6876H85.8895ZM78.9381 26.5663C75.5152 26.5663 74.4376 25.3317 74.4376 21.6916C74.4376 18.0515 75.5152 16.8168 78.9381 16.8168C82.361 16.8168 83.4174 18.0515 83.4174 21.6916C83.4174 25.3317 82.3821 26.5876 78.9381 26.5876V26.5663Z" fill="#00234D"/>
<path d="M12.3394 11.9847C9.86726 12.0272 7.50081 13.0703 5.78935 14.8584V12.4104H0V37.3376H5.7471V28.4822C7.47968 30.2703 9.84613 31.2921 12.3182 31.3347C17.7484 31.3347 20.7487 28.3545 20.7487 21.6703C20.7487 14.9861 17.7695 12.0059 12.3394 12.0059V11.9847ZM10.2898 26.4812C6.86693 26.4812 5.78935 25.2465 5.78935 21.6064C5.78935 17.9663 6.86693 16.7317 10.2898 16.7317C13.7127 16.7317 14.7692 17.9663 14.7692 21.6064C14.7692 25.2465 13.7339 26.4812 10.2898 26.4812Z" fill="#00234D"/>
<path d="M128.993 12.453V19.201H121.365V12.453H115.576V30.7386H121.365V23.8842H128.993V30.7386H134.782V12.453H128.993Z" fill="#00234D"/>
<path d="M91.4887 21.649C91.4887 28.3332 94.489 31.3134 99.9192 31.3134C102.391 31.2708 104.758 30.249 106.49 28.4609V30.7173H112.237V12.4317H106.448V14.8797C104.715 13.0703 102.37 12.0485 99.8769 12.0059C94.4679 12.0059 91.4887 14.9861 91.4887 21.6703V21.649ZM97.4682 21.649C97.4682 18.0089 98.5035 16.7743 101.948 16.7743C105.392 16.7743 106.448 18.0089 106.448 21.649C106.448 25.2891 105.37 26.5238 101.948 26.5238C98.5247 26.5238 97.4682 25.2252 97.4682 21.6277V21.649Z" fill="#00234D"/>
<path d="M60.5347 23.9693C60.091 25.8851 58.8655 26.6089 56.2666 26.6089C52.8437 26.6089 51.7661 25.3743 51.7661 21.7342C51.7661 18.0941 52.8226 16.8594 56.2666 16.8594C58.8866 16.8594 60.1121 17.5619 60.5347 19.499L66.5564 19.0307C65.6479 14.2411 62.1405 12.0272 56.2455 12.0272C49.3785 12.0272 45.7232 15.05 45.7232 21.6703C45.7232 28.2906 49.3363 31.4411 56.2455 31.4411C62.1194 31.4411 65.6056 29.1634 66.5353 24.4376L60.5347 23.9906V23.9693Z" fill="#00234D"/>
<path d="M159.228 30.7386L150.079 21.1381L158.742 12.453H151.601L143.846 20.3931V12.453H138.163V30.7386H143.846V22.3302L151.812 30.7386H159.25H159.228Z" fill="#00234D"/>
<path d="M208.142 12.4743V30.7812H217.84C221.939 30.7812 224.496 28.7376 224.496 25.4168C224.496 24.5015 224.242 23.6074 223.735 22.8624C223.228 22.1173 222.489 21.5426 221.644 21.2446C222.32 20.8614 222.869 20.3079 223.249 19.6267C223.63 18.9455 223.82 18.1792 223.799 17.3916C223.799 14.3475 221.453 12.4743 217.714 12.4743H208.1H208.142ZM217.692 20.0312H211.121V15.2203H217.777C219.763 15.2203 220.904 16.0718 220.904 17.5406C220.904 19.6054 219.15 20.0525 217.692 20.0525V20.0312ZM217.883 28.0139H211.121V22.7772H217.925C220.207 22.7772 221.453 23.6926 221.453 25.353C221.453 27.1411 220.249 28.0351 217.883 28.0351V28.0139Z" fill="#00234D"/>
<path d="M225.109 15.2629H232.736V30.8025H235.715V15.2629H243.322V12.4743H225.109V15.2629Z" fill="#00234D"/>
<path d="M252.809 12.0911C246.787 12.0911 243.618 15.3693 243.618 21.5851C243.618 27.801 246.787 31.1644 252.809 31.1644C258.831 31.1644 262 27.8436 262 21.5851C262 15.3267 258.831 12.0911 252.809 12.0911ZM258.894 21.6277C258.894 26.6089 257.309 28.3757 252.809 28.3757C248.308 28.3757 246.766 26.6089 246.766 21.6277C246.766 16.6465 248.414 14.8797 252.809 14.8797C257.204 14.8797 258.873 16.7104 258.873 21.6277H258.894Z" fill="#00234D"/>
<path d="M199.606 14.7307C197.937 13.0916 195.697 12.155 193.373 12.1124C187.753 12.1124 184.773 15.4119 184.773 21.6703C184.773 27.9287 187.753 31.2069 193.373 31.2069C194.535 31.2069 195.676 30.9515 196.754 30.5045C197.831 30.0574 198.803 29.3762 199.606 28.546V30.8663H202.564V12.4743H199.606V14.7307ZM199.543 25.5446C199.543 25.8213 199.479 26.0767 199.331 26.3109C199.204 26.545 199.014 26.7579 198.782 26.9069C198.085 27.3752 197.324 27.7158 196.521 27.9713C195.634 28.248 194.704 28.3757 193.774 28.3757C191.492 28.3757 190.077 27.8861 189.189 26.7792C188.302 25.6723 187.922 24.0332 187.922 21.649C187.922 19.0946 188.344 17.4342 189.274 16.3911C190.204 15.348 191.598 14.901 193.774 14.901C194.704 14.901 195.634 15.05 196.542 15.3267C197.303 15.6035 198.021 15.9228 198.719 16.3485C198.972 16.4975 199.183 16.7104 199.331 16.9446C199.479 17.2 199.543 17.4767 199.543 17.7748C199.543 18.8604 199.543 20.5634 199.543 22.1812V25.5446Z" fill="#00234D"/>
</svg>
